<?xml version="1.0" encoding="UTF-8"?>
<svg viewBox="0 0 248 72" xmlns="http://www.w3.org/2000/svg"><path d="m21.33 9.4433c-1.1333 0.22178-2.1534 0.66536-3.1734 1.3307 1.4734-2.3287 2.3801-3.4376 4.1935-5.6554 0.68-0.77624 0.7934-1.7743 0.2267-2.2178-0.5667-0.44356-1.5868-0.22178-2.2668 0.55446-2.0401 2.2178-2.8335 3.4376-4.4202 5.8772 0.2267-1.1089 0.34-2.3287 0.2267-3.5485-0.2267-2.8832-1.8135-4.8792-2.7202-5.6555-0.34-0.33268-1.1334 1e-6 -1.4734 0.77624-1.02 1.8852-2.4934 5.5446-1.9267 8.5386 0.45333 2.5505 2.1534 3.9921 3.2868 4.6575-1.1334 2.3287-1.7001 3.5485-2.4935 6.099-0.1133-1.1089-0.34-2.3287-0.68-3.4376-0.9067-2.7723-2.9468-4.2139-4.0802-4.7684-0.45336-0.2217-1.02 0.3327-1.2467 0.9981-0.45335 1.996-1.02 5.7663 0.22668 8.5386 1.02 2.3287 3.0602 3.3268 4.3069 3.7703-0.56669 2.5505-0.79337 3.7703-1.02 6.3208-0.34001-1.1089-0.79337-2.2178-1.4734-3.1049-1.5867-2.4396-3.8535-3.3268-5.1002-3.6594-0.45336-0.1109-0.90671 0.4435-0.90671 1.2198 0 1.996 0.45335 5.7663 2.2668 8.095 1.5867 1.9961 3.7402 2.5505 5.1002 2.6614 0 2.5505 0.11334 3.8812 0.5667 6.4317-0.5667-0.998-1.3601-1.8851-2.1534-2.7722-2.1534-1.9961-4.5336-2.4397-5.8936-2.4397-0.45336 0-0.79337 0.6654-0.68003 1.4416 0.45336 1.9961 1.8134 5.5446 4.1935 7.3189 2.0401 1.5524 4.1935 1.6633 5.5536 1.4416 0.68 2.5505 1.02 3.7703 2.0401 6.2099-0.7934-0.7763-1.8134-1.5525-2.8335-2.2178-2.4935-1.4416-4.9869-1.3307-6.2336-0.9981-0.45336 0.1109-0.5667 0.8872-0.22668 1.5525 0.90671 1.7743 3.0601 4.9901 5.7803 6.3208 2.3801 1.1089 4.5335 0.6654 5.7803 0.1109 1.2467 2.3287 1.9267 3.4377 3.5135 5.6555-1.0201-0.5545-2.1535-1.2198-3.2869-1.5525-2.8334-0.8871-5.2135-0.2218-6.3469 0.3327-0.45336 0.2218-0.34002 0.998 0.11334 1.5525 1.3601 1.5524 4.3069 4.2138 7.2537 4.9901 2.6068 0.5544 4.5335-0.3327 5.7803-1.1089 0.7933 0.8871 1.2467 1.3307 2.1534 2.2178 0.7934 0.7762 1.8134 0.8871 2.2668 0.3327 0.4533-0.5545 0.2267-1.4416-0.4534-2.2179-0.7933-0.7762-1.2467-1.2198-2.0401-2.1069 0.9067-0.998 2.0401-2.7723 2.3801-4.9901 0.3401-2.6614-0.34-5.2119-0.7933-6.5426-0.1134-0.4436-0.6801-0.7763-1.1334-0.5545-1.1334 0.6654-3.1735 2.107-3.7402 4.7684-0.2267 1.1089-0.2267 2.2178 0 3.3267-1.4734-2.1069-2.1534-3.105-3.4002-5.3228 1.1334-0.7762 2.7202-2.2178 3.5135-4.2139 1.0201-2.4396 0.9068-4.9901 0.9068-6.4317 0-0.5544-0.4534-0.8871-0.9068-0.7762-1.2467 0.4436-3.6268 1.3307-4.7602 3.7703-0.4533 0.998-0.68 2.1069-0.7934 3.2158-0.9067-2.3287-1.36-3.4376-1.9267-5.8772 1.2467-0.4436 3.1735-1.4416 4.4202-3.3267 1.5867-2.107 2.0401-4.6575 2.3801-5.9882 0.1133-0.4436-0.2267-0.998-0.7934-0.8871-1.2467 0.1109-3.8535 0.4435-5.5536 2.5505-0.68 0.7762-1.2467 1.8851-1.4734 2.8832-0.34-2.4396-0.4533-3.6595-0.4533-6.0991 1.36-0.2217 3.4001-0.7762 5.1002-2.2178 2.0401-1.6634 3.1735-3.9921 3.7402-5.3228 0.2267-0.4436 0-0.998-0.4534-1.1089-1.2467-0.2218-3.8535-0.4436-6.0069 1.2198-0.9067 0.6654-1.5867 1.5525-2.1534 2.4396 0.2266-2.4396 0.4533-3.6594 0.9067-6.099 1.36 0.1109 3.5135 0 5.5536-0.998 2.3801-1.2198 3.9668-3.3268 4.8735-4.4357 0.34-0.4436 0.2267-0.998-0.2266-1.1089-1.2468-0.4436-3.6269-1.2198-6.1203-0.1109-1.0201 0.4436-1.9268 1.1089-2.7202 1.996 0.7934-2.3287 1.2468-3.5485 2.3801-5.7663 1.3601 0.4436 3.4002 0.8871 5.667 0.2218 2.6068-0.6654 4.7602-2.3287 5.8936-3.3268 0.4534-0.3326 0.4534-0.8871 0.1133-1.2198-1.2467-0.7762-3.4001-2.1069-6.1203-1.5525z" fill="#93BBF4"/><path d="m36.997 17h1.6875v-8.2188h-1.6875v8.2188zm0.8437-9.4219c0.5469 0 0.9844-0.42968 0.9844-0.96093 0-0.53907-0.4375-0.96875-0.9844-0.96875-0.539 0-0.9765 0.42968-0.9765 0.96875 0 0.53125 0.4375 0.96093 0.9765 0.96093zm12.484 4.7344v-1.1484h-4.6406v1.414h2.914v0.1953c-0.0234 1.711-1.289 2.8828-3.1172 2.8828-2.1484 0-3.4843-1.664-3.4843-4.3593 0-2.6485 1.2968-4.2266 3.4531-4.2266 1.4687 0 2.5703 0.80469 2.9922 2.2031h1.7969c-0.3907-2.25-2.2891-3.7344-4.7969-3.7344-3.211 0-5.2344 2.2188-5.2344 5.7734 0 3.6172 2.0313 5.875 5.2578 5.875 3.0547 0 4.8594-1.8203 4.8594-4.875zm6.2344 4.6875c2.3984 0 3.8437-1.2031 3.8437-3.1875 0-1.5-1.0312-2.5859-2.5625-2.7578v-0.0625c1.125-0.1875 2.0078-1.2578 2.0078-2.4531 0-1.7031-1.3125-2.8125-3.3125-2.8125h-4.5v11.273h4.5235zm-2.7735-9.8438h2.3282c1.2656 0 1.9843 0.57813 1.9843 1.625 0 1.1172-0.8359 1.7422-2.3515 1.7422h-1.961v-3.3672zm0 8.414v-3.7109h2.3125c1.6563 0 2.5157 0.625 2.5157 1.8437 0 1.2188-0.836 1.8672-2.4141 1.8672h-2.4141zm18.719 1.4297h1.8515l-4.0703-11.273h-1.8906l-4.0703 11.273h1.8203l1.0313-3.0469h4.2968l1.0313 3.0469zm-3.2031-9.3984h0.0468l1.6797 4.9453h-3.4062l1.6797-4.9453zm6.5234 9.3984h1.6953v-6.8828h1.6406v-1.3203h-1.664v-0.77344c0-0.72656 0.3437-1.0938 1.0781-1.0938 0.2266 0 0.4531 0.01562 0.6172 0.04687v-1.25c-0.2188-0.03906-0.6016-0.07812-0.9453-0.07812-1.6719 0-2.4219 0.75-2.4219 2.3438v0.80469h-1.1328v1.3203h1.1328v6.8828zm5.1562 0h1.6954v-6.8828h1.6406v-1.3203h-1.6641v-0.77344c0-0.72656 0.3438-1.0938 1.0781-1.0938 0.2266 0 0.4532 0.01562 0.6172 0.04687v-1.25c-0.2187-0.03906-0.6015-0.07812-0.9453-0.07812-1.6719 0-2.4219 0.75-2.4219 2.3438v0.80469h-1.1328v1.3203h1.1328v6.8828zm4.7188 0h1.6875v-8.2188h-1.6875v8.2188zm0.8437-9.4219c0.5469 0 0.9844-0.42968 0.9844-0.96093 0-0.53907-0.4375-0.96875-0.9844-0.96875-0.539 0-0.9765 0.42968-0.9765 0.96875 0 0.53125 0.4375 0.96093 0.9765 0.96093zm2.6329 9.4219h1.6875v-11.273h-1.6875v11.273zm3.4765 0h1.6875v-8.2188h-1.6875v8.2188zm0.8438-9.4219c0.5468 0 0.9843-0.42968 0.9843-0.96093 0-0.53907-0.4375-0.96875-0.9843-0.96875-0.5391 0-0.9766 0.42968-0.9766 0.96875 0 0.53125 0.4375 0.96093 0.9766 0.96093zm5.4453 8.2266c-0.9063 0-1.5-0.4688-1.5-1.1875 0-0.7031 0.5703-1.1484 1.5781-1.2188l2.0235-0.125v0.6485c0 1.0703-0.922 1.8828-2.1016 1.8828zm-0.4688 1.3359c1.0782 0 2.1174-0.5781 2.5934-1.4922h0.039v1.3516h1.618v-5.6641c0-1.6484-1.274-2.7031-3.266-2.7031-2.0312 0-3.2969 1.0938-3.3906 2.5781h1.5937c0.1485-0.7343 0.7578-1.2031 1.7344-1.2031 1.0315 0 1.6485 0.5469 1.6485 1.461v0.6328l-2.2501 0.1328c-1.9531 0.1094-3.0546 0.9922-3.0546 2.4297 0 1.4765 1.125 2.4765 2.7343 2.4765zm6.3824-10.305v1.9453h-1.195v1.336h1.195v4.7187c0 1.586 0.649 2.2188 2.313 2.2188 0.375 0 0.75-0.0313 0.937-0.0781v-1.336c-0.109 0.0235-0.382 0.0391-0.554 0.0391-0.688 0-1-0.3203-1-1.0313v-4.5312h1.562v-1.336h-1.562v-1.9453h-1.696zm7.883 3.1562c1.18 0 1.977 0.88281 2.016 2.1406h-4.109c0.085-1.2422 0.914-2.1406 2.093-2.1406zm2.008 4.5937c-0.226 0.7188-0.937 1.2032-1.898 1.2032-1.352 0-2.211-0.9453-2.211-2.375v-0.1016h5.804v-0.5781c0-2.4922-1.421-4.1016-3.703-4.1016-2.32 0-3.804 1.7188-3.804 4.2969 0 2.5937 1.461 4.2265 3.875 4.2265 1.882 0 3.304-1.0703 3.539-2.5703h-1.602zm13.805 2.4141h1.851l-4.07-11.273h-1.891l-4.07 11.273h1.82l1.032-3.0469h4.297l1.031 3.0469zm-3.203-9.3984h0.047l1.679 4.9453h-3.406l1.68-4.9453zm16.328 1.1797h-1.672l-1.5 6.4688h-0.039l-1.719-6.4688h-1.625l-1.711 6.4688h-0.031l-1.5-6.4688h-1.688l2.258 8.2188h1.742l1.711-6.1562h0.039l1.727 6.1562h1.758l2.25-8.2188zm3.765 7.0234c-0.906 0-1.5-0.4688-1.5-1.1875 0-0.7031 0.571-1.1484 1.579-1.2188l2.023-0.125v0.6485c0 1.0703-0.922 1.8828-2.102 1.8828zm-0.468 1.3359c1.078 0 2.117-0.5781 2.593-1.4922h0.039v1.3516h1.618v-5.6641c0-1.6484-1.274-2.7031-3.266-2.7031-2.031 0-3.297 1.0938-3.391 2.5781h1.594c0.149-0.7343 0.758-1.2031 1.735-1.2031 1.031 0 1.648 0.5469 1.648 1.461v0.6328l-2.25 0.1328c-1.953 0.1094-3.055 0.9922-3.055 2.4297 0 1.4765 1.125 2.4765 2.735 2.4765zm5.89-0.1406h1.688v-4.9219c0-1.164 0.672-1.8906 1.758-1.8906 0.328 0 0.625 0.0391 0.757 0.0937v-1.5703c-0.125-0.02344-0.336-0.0625-0.578-0.0625-0.968 0-1.703 0.57031-1.976 1.5313h-0.039v-1.3984h-1.61v8.2188zm7.977 0.1406c1.195 0 2.133-0.6015 2.617-1.539h0.031v1.3984h1.641v-11.273h-1.695v4.4218h-0.032c-0.461-0.90621-1.398-1.5-2.578-1.5-2.062 0-3.437 1.6485-3.437 4.2422 0 2.5938 1.375 4.25 3.453 4.25zm0.445-7.0703c1.297 0 2.164 1.1172 2.164 2.8203 0 1.7188-0.867 2.8203-2.164 2.8203-1.336 0-2.172-1.0859-2.172-2.8203 0-1.7265 0.836-2.8203 2.172-2.8203zm5.43 1.0391c0 1.1484 0.75 1.9218 2.234 2.2812l1.469 0.3594c0.859 0.2188 1.172 0.5078 1.172 1.0312 0 0.6641-0.625 1.086-1.641 1.086-1.031 0-1.64-0.4375-1.773-1.2266h-1.672c0.133 1.5078 1.422 2.5156 3.367 2.5156 2.016 0 3.414-1.0312 3.414-2.5312 0-1.2109-0.625-1.8359-2.281-2.2344l-1.383-0.3203c-0.851-0.2109-1.258-0.5547-1.258-1.0625 0-0.6484 0.61-1.0937 1.524-1.0937 0.945 0 1.547 0.46094 1.625 1.2031h1.586c-0.055-1.461-1.336-2.4844-3.164-2.4844-1.922 0-3.219 1.0078-3.219 2.4766zm11.078-2.0782v0.01563h1.656v-0.02344c0-1.1719 0.93-2.0625 2.164-2.0625 1.172 0 2.078 0.79687 2.078 1.7969 0 0.88281-0.359 1.4766-1.734 2.9063l-4.07 4.1484v1.1875h7.711v-1.4766h-5.352v-0.039l2.82-2.836c1.649-1.6875 2.352-2.664 2.352-3.9765 0-1.7891-1.602-3.1563-3.75-3.1563-2.242 0-3.875 1.4844-3.875 3.5156zm13.469 8.1796c2.703 0 4.289-2.2734 4.289-5.8671 0-3.5704-1.594-5.8282-4.289-5.8282-2.688 0-4.305 2.2656-4.305 5.836 0 3.5937 1.602 5.8593 4.305 5.8593zm0-1.4687c-1.61 0-2.532-1.6719-2.532-4.3906 0-2.6797 0.938-4.3672 2.532-4.3672 1.593 0 2.523 1.6797 2.523 4.3672 0 2.7265-0.914 4.3906-2.523 4.3906zm8.586 1.2578h1.711v-11.273h-1.727l-2.969 2.1094v1.7188l2.946-2.0938h0.039v9.5391zm8.242 0.2109c2.828 0 4.5-2.2343 4.5-6.0078 0-1.3203-0.235-2.4297-0.695-3.3281-0.727-1.5156-2.071-2.3672-3.743-2.3672-2.382 0-4.117 1.6406-4.117 3.8984 0 2.1406 1.602 3.7266 3.742 3.7266 1.453 0 2.641-0.7344 3.094-1.8437h0.016 0.015c0 2.8437-1.031 4.4687-2.789 4.4687-1.039 0-1.898-0.6172-2.164-1.539h-1.758c0.336 1.789 1.891 2.9921 3.899 2.9921zm0.062-5.5078c-1.367 0-2.375-1-2.375-2.3515 0-1.3125 1.055-2.3516 2.399-2.3516s2.39 1.0469 2.39 2.3828c0 1.3281-1.031 2.3203-2.414 2.3203z" fill="#fff"/><path d="m58.946 44c3.0078 0 4.873-1.5527 4.873-4.0332 0-1.8652-1.4062-3.2617-3.3203-3.4082v-0.0781c1.4942-0.2246 2.6465-1.5137 2.6465-3.0567 0-2.1582-1.6601-3.5156-4.3066-3.5156h-6.1328v14.092h6.2402zm-3.291-11.894h2.4218c1.377 0 2.168 0.6445 2.168 1.7773 0 1.1914-0.8984 1.8848-2.4707 1.8848h-2.1191v-3.6621zm0 9.6972v-4.0918h2.4707c1.7383 0 2.6855 0.7032 2.6855 2.0215 0 1.3477-0.9179 2.0703-2.6172 2.0703h-2.539zm14.297-6.3867c1.2696 0 2.1387 0.918 2.1973 2.2559h-4.4433c0.0976-1.3086 0.996-2.2559 2.246-2.2559zm2.2364 5.3809c-0.2637 0.8008-1.0645 1.3183-2.1094 1.3183-1.4551 0-2.4023-1.0254-2.4023-2.5195v-0.1758h7.2168v-0.8691c0-3.1836-1.9239-5.2442-4.9707-5.2442-3.0958 0-5.0489 2.168-5.0489 5.5079 0 3.3496 1.9336 5.4101 5.1563 5.4101 2.5879 0 4.4629-1.3769 4.7754-3.4277h-2.6172zm4.0039-4.1895c0 1.543 1.0156 2.5781 2.998 3.0274l1.9336 0.4297c0.9375 0.2246 1.2891 0.5175 1.2891 1.0449 0 0.6836-0.6543 1.1133-1.7383 1.1133-1.1328 0-1.8262-0.5079-1.9629-1.3868h-2.7832c0.1563 2.0411 1.875 3.3887 4.668 3.3887 2.7637 0 4.6582-1.3574 4.6582-3.418 0-1.5625-0.8496-2.3925-2.9492-2.8613l-2.002-0.4297c-0.918-0.2148-1.3672-0.5664-1.3672-1.084 0-0.6738 0.6446-1.123 1.6309-1.123 1.0547 0 1.7285 0.5176 1.7871 1.3574h2.6269c-0.039-2.0312-1.748-3.3594-4.375-3.3594-2.6855 0-4.414 1.3086-4.414 3.3008zm11.25-5.4883v2.4121h-1.4746v2.1485h1.4746v5.498c0 2.0411 0.957 2.8614 3.418 2.8614 0.5761 0 1.0644-0.0489 1.3574-0.1172v-2.0996c-0.1758 0.0293-0.4395 0.0488-0.6934 0.0488-0.8398 0-1.2305-0.3809-1.2305-1.1816v-5.0098h1.9336v-2.1485h-1.9336v-2.4121h-2.8515zm13.379 12.881v-9.2285h0.088l6.592 9.2285h2.441v-14.092h-2.822v9.1797h-0.078l-6.582-9.1797h-2.461v14.092h2.822zm15.928-8.584c1.27 0 2.139 0.918 2.197 2.2559h-4.443c0.098-1.3086 0.996-2.2559 2.246-2.2559zm2.236 5.3809c-0.263 0.8008-1.064 1.3183-2.109 1.3183-1.455 0-2.402-1.0254-2.402-2.5195v-0.1758h7.216v-0.8691c0-3.1836-1.923-5.2442-4.97-5.2442-3.096 0-5.049 2.168-5.049 5.5079 0 3.3496 1.933 5.4101 5.156 5.4101 2.588 0 4.463-1.3769 4.776-3.4277h-2.618zm18.809-7.2657h-2.813l-1.591 7.7637h-0.059l-1.865-7.7637h-2.735l-1.855 7.7637h-0.059l-1.582-7.7637h-2.871l2.783 10.469h2.999l1.884-7.4023h0.059l1.894 7.4023h3.038l2.773-10.469zm10.469 3.8965c-0.127-2.373-1.924-4.1211-4.756-4.1211-3.135 0-5.137 2.0899-5.137 5.4493 0 3.4179 2.002 5.4687 5.156 5.4687 2.754 0 4.6-1.5918 4.746-4.0625h-2.656c-0.176 1.1426-0.918 1.8262-2.06 1.8262-1.416 0-2.295-1.1719-2.295-3.2324 0-2.0215 0.879-3.2129 2.285-3.2129 1.172 0 1.904 0.7812 2.07 1.8847h2.647zm6.191 6.7969c3.164 0 5.186-2.0215 5.186-5.4687 0-3.3985-2.051-5.4493-5.186-5.4493s-5.185 2.0606-5.185 5.4493c0 3.4375 2.021 5.4687 5.185 5.4687zm0-2.1777c-1.406 0-2.295-1.1817-2.295-3.2813 0-2.0801 0.908-3.2812 2.295-3.2812s2.285 1.2011 2.285 3.2812c0 2.0996-0.888 3.2813-2.285 3.2813zm6.66 1.9531h2.852v-6.3184c0-1.1718 0.732-1.9921 1.816-1.9921 1.055 0 1.69 0.664 1.69 1.7871v6.5234h2.744v-6.3574c0-1.1621 0.713-1.9531 1.797-1.9531 1.103 0 1.709 0.664 1.709 1.875v6.4355h2.851v-7.1484c0-2.1094-1.377-3.5157-3.427-3.5157-1.534 0-2.784 0.8301-3.252 2.1485h-0.059c-0.352-1.3672-1.406-2.1485-2.92-2.1485-1.426 0-2.549 0.8301-2.988 2.0899h-0.059v-1.8946h-2.754v10.469zm21.963-8.584c1.27 0 2.139 0.918 2.197 2.2559h-4.443c0.098-1.3086 0.996-2.2559 2.246-2.2559zm2.236 5.3809c-0.263 0.8008-1.064 1.3183-2.109 1.3183-1.455 0-2.402-1.0254-2.402-2.5195v-0.1758h7.217v-0.8691c0-3.1836-1.924-5.2442-4.971-5.2442-3.096 0-5.049 2.168-5.049 5.5079 0 3.3496 1.934 5.4101 5.156 5.4101 2.588 0 4.463-1.3769 4.776-3.4277h-2.618zm4.18 3.2031h2.852v-5.8496c0-1.4746 0.82-2.334 2.226-2.334 0.41 0 0.801 0.0684 1.035 0.166v-2.5097c-0.195-0.0586-0.478-0.1075-0.81-0.1075-1.231 0-2.119 0.7227-2.49 2.0508h-0.059v-1.8848h-2.754v10.469z" fill="#fff"/><path d="m83.377 66v-7.2666h0.0615l5.1133 7.2666h1.3809v-9.8643h-1.4903v7.2735h-0.0547l-5.1132-7.2735h-1.3877v9.8643h1.4902zm13.486-10.028c-2.8438 0-4.6211 1.9619-4.6211 5.0996s1.7773 5.0928 4.6211 5.0928c2.8369 0 4.6212-1.9551 4.6212-5.0928s-1.7843-5.0996-4.6212-5.0996zm0 1.3467c1.873 0 3.0488 1.4492 3.0488 3.7529 0 2.2969-1.1758 3.7461-3.0488 3.7461-1.8731 0-3.0557-1.4492-3.0557-3.7461 0-2.3037 1.1826-3.7529 3.0557-3.7529zm16.904 8.6816v-9.8643h-1.777l-3.186 7.7862h-0.054l-3.193-7.7862h-1.77v9.8643h1.394v-7.2598h0.048l2.981 7.1846h1.134l2.974-7.1846h0.048v7.2598h1.401zm4.19 0v-9.8643h-1.531v9.8643h1.531zm4.148 0v-7.2666h0.062l5.113 7.2666h1.381v-9.8643h-1.49v7.2735h-0.055l-5.113-7.2735h-1.388v9.8643h1.49zm15.647 0h1.62l-3.561-9.8643h-1.655l-3.561 9.8643h1.593l0.902-2.666h3.76l0.902 2.666zm-2.803-8.2236h0.041l1.47 4.3271h-2.98l1.469-4.3271zm8.975 8.2236v-8.5449h3.015v-1.3194h-7.568v1.3194h3.022v8.5449h1.531zm11.367-1.3262h-4.73v-3.0625h4.478v-1.2715h-4.478v-2.8847h4.73v-1.3194h-6.261v9.8643h6.261v-1.3262zm2.413-8.5381v9.8643h3.479c2.94 0 4.669-1.832 4.669-4.9492 0-3.1104-1.736-4.9151-4.669-4.9151h-3.479zm1.531 1.3194h1.805c2.085 0 3.247 1.2851 3.247 3.6094 0 2.331-1.156 3.6093-3.247 3.6093h-1.805v-7.2187z" fill="#fff"/><path d="m243.15 46.814c2.39-1.8876 3.641-5.4407 4.21-7.3283 0.114-0.6662-0.114-1.4434-0.682-1.4434-1.366 0-3.755 0.4441-5.917 2.4427-0.91 0.7773-1.593 1.7766-2.162 2.7759 0.342-2.5538 0.455-3.8862 0.569-6.44 1.366-0.111 3.527-0.6662 5.12-2.6648 1.821-2.3317 2.276-6.1069 2.276-8.1055 0-0.7772-0.455-1.3324-0.91-1.2213-1.252 0.3331-3.528 1.3324-5.12 3.6641-0.683 0.9993-1.138 2.1096-1.48 3.1089-0.227-2.5538-0.455-3.8862-1.024-6.3289 1.366-0.4441 3.3-1.4434 4.324-3.7752 1.252-2.6648 0.796-6.551 0.228-8.5496-0.228-0.6662-0.797-1.2213-1.252-0.9993-1.138 0.5552-3.186 2.1097-4.096 4.7745-0.341 1.1103-0.569 2.3317-0.683 3.442-0.796-2.4427-1.365-3.6641-2.503-6.1068 1.138-0.7773 2.845-2.1097 3.3-4.6634 0.569-2.9979-0.91-6.662-1.934-8.5496-0.342-0.6662-1.138-0.99931-1.48-0.77724-1.024 0.88827-2.503 2.7758-2.73 5.6627-0.114 1.2214 0 2.4427 0.227 3.5531-1.593-2.4427-2.503-3.6641-4.437-5.8848-0.683-0.77724-1.707-0.99931-2.276-0.55517-0.569 0.44413-0.341 1.4434 0.228 2.2207 1.934 2.1096 2.731 3.331 4.21 5.6628-0.91-0.6662-2.048-1.1104-3.186-1.3324-2.731-0.55517-4.893 0.77724-6.03 1.5544-0.342 0.2221-0.342 0.8883 0.113 1.2214 1.138 0.8883 3.3 2.5538 5.917 3.331 2.275 0.5552 4.324 0.2221 5.689-0.2221 1.138 2.2207 1.593 3.4421 2.389 5.7738-0.796-0.7772-1.706-1.5545-2.73-1.9986-2.504-1.1103-5.007-0.3331-6.145 0.111-0.455 0.2221-0.568 0.7773-0.227 1.1104 0.91 1.1103 2.617 3.22 4.892 4.4413 2.048 0.9993 4.21 1.1104 5.576 0.9993 0.568 2.4428 0.682 3.6641 0.91 6.1069-0.569-0.8883-1.252-1.7765-2.162-2.4428-2.162-1.5544-4.779-1.4434-6.03-1.2213-0.455 0.111-0.683 0.5551-0.455 1.1103 0.568 1.2214 1.706 3.6641 3.754 5.3296 1.707 1.4435 3.755 1.9986 5.12 2.2207 0 2.4428-0.113 3.6641-0.455 6.1069-0.341-0.9993-0.796-2.1097-1.479-2.8869-1.707-1.9986-4.323-2.4427-5.575-2.5538-0.455 0-0.797 0.4442-0.797 0.8883 0.228 1.3324 0.797 3.8862 2.39 5.9958 1.365 1.7766 3.186 2.8869 4.437 3.331-0.569 2.3317-1.024 3.5531-1.934 5.8848-0.114-1.1103-0.341-2.2207-0.796-3.22-1.252-2.4427-3.528-3.331-4.779-3.7751-0.455-0.111-0.91 0.2221-0.91 0.7772-0.114 1.3324-0.114 3.9973 0.91 6.44 0.91 2.1096 2.389 3.5531 3.527 4.2193-1.138 2.2207-1.82 3.331-3.413 5.3296 0.227-1.1103 0.227-2.2207 0-3.331-0.569-2.6648-2.617-4.1083-3.755-4.7745-0.455-0.222-0.91 0-1.138 0.5552-0.455 1.3324-1.138 3.9972-0.796 6.551 0.341 2.2207 1.479 3.9972 2.389 4.9965-0.796 0.8883-1.138 1.2214-2.048 2.1097-0.683 0.6662-0.91 1.6655-0.455 2.2206 0.455 0.5552 1.593 0.3331 2.275-0.3331 0.911-0.8882 1.252-1.3324 2.162-2.2206 1.138 0.7772 3.072 1.6655 5.803 1.1103 3.072-0.6662 5.916-3.331 7.282-4.9965 0.455-0.5552 0.569-1.3324 0.114-1.5545-1.138-0.5552-3.528-1.2214-6.372-0.3331-1.138 0.3331-2.276 0.8883-3.3 1.5545 1.593-2.2207 2.276-3.331 3.528-5.6628 1.251 0.4442 3.413 0.9994 5.802-0.111 2.731-1.3324 4.893-4.5524 5.803-6.3289 0.341-0.6662 0.227-1.4435-0.228-1.5545-1.251-0.2221-3.754-0.4441-6.257 0.9993-1.024 0.5552-1.935 1.3324-2.845 2.2207 1.024-2.4427 1.365-3.6641 2.048-6.2179 1.252 0.2221 3.413 0.111 5.461-1.4434z" fill="#93BBF4"/></svg>
