<svg width="363" height="72" viewBox="0 0 363 72" fill="none" xmlns="http://www.w3.org/2000/svg">
<path d="M21.3296 9.44334C20.1963 9.66512 19.1762 10.1087 18.1562 10.774C19.6296 8.44531 20.5363 7.3364 22.3497 5.11857C23.0297 4.34233 23.1431 3.34431 22.5764 2.90074C22.0097 2.45718 20.9896 2.67896 20.3096 3.4552C18.2695 5.67303 17.4761 6.89283 15.8894 9.33245C16.1161 8.22353 16.2294 7.00373 16.1161 5.78392C15.8894 2.90074 14.3026 0.904695 13.3959 0.128455C13.0559 -0.20422 12.2625 0.128456 11.9225 0.904696C10.9025 2.78985 9.42908 6.44927 9.99577 9.44334C10.4491 11.9938 12.1492 13.4354 13.2826 14.1008C12.1492 16.4295 11.5825 17.6493 10.7891 20.1998C10.6758 19.0909 10.4491 17.8711 10.1091 16.7622C9.2024 13.9899 7.16231 12.5483 6.02892 11.9938C5.57556 11.7721 5.00887 12.3265 4.78219 12.9919C4.32884 14.9879 3.76214 18.7582 5.00887 21.5305C6.02892 23.8592 8.06902 24.8573 9.31574 25.3008C8.74905 27.8513 8.52237 29.0711 8.29569 31.6216C7.95568 30.5127 7.50232 29.4038 6.82229 28.5167C5.23555 26.0771 2.96877 25.1899 1.72205 24.8573C1.26869 24.7464 0.815338 25.3008 0.815338 26.0771C0.815338 28.0731 1.26869 31.8434 3.08211 34.1721C4.66885 36.1682 6.82229 36.7226 8.18235 36.8335C8.18235 39.384 8.29569 40.7147 8.74905 43.2652C8.18235 42.2672 7.38898 41.3801 6.59561 40.493C4.44218 38.4969 2.06206 38.0533 0.701999 38.0533C0.248644 38.0533 -0.091372 38.7187 0.0219667 39.4949C0.475322 41.491 1.83539 45.0395 4.2155 46.8138C6.2556 48.3662 8.40903 48.4771 9.7691 48.2554C10.4491 50.8059 10.7891 52.0257 11.8092 54.4653C11.0158 53.689 9.99577 52.9128 8.97573 52.2475C6.48227 50.8059 3.98882 50.9168 2.7421 51.2494C2.28874 51.3603 2.1754 52.1366 2.51542 52.8019C3.42213 54.5762 5.57556 57.792 8.29569 59.1227C10.6758 60.2316 12.8292 59.7881 14.076 59.2336C15.3227 61.5623 16.0027 62.6713 17.5895 64.8891C16.5694 64.3346 15.436 63.6693 14.3026 63.3366C11.4692 62.4495 9.08906 63.1148 7.95568 63.6693C7.50232 63.8911 7.61566 64.6673 8.06902 65.2218C9.42908 66.7742 12.3759 69.4356 15.3227 70.2119C17.9295 70.7663 19.8562 69.8792 21.103 69.103C21.8963 69.9901 22.3497 70.4337 23.2564 71.3208C24.0498 72.097 25.0698 72.2079 25.5232 71.6535C25.9765 71.099 25.7499 70.2119 25.0698 69.4356C24.2765 68.6594 23.8231 68.2158 23.0297 67.3287C23.9364 66.3307 25.0698 64.5564 25.4098 62.3386C25.7499 59.6772 25.0698 57.1267 24.6165 55.796C24.5031 55.3524 23.9364 55.0197 23.4831 55.2415C22.3497 55.9069 20.3096 57.3485 19.7429 60.0099C19.5162 61.1188 19.5162 62.2277 19.7429 63.3366C18.2695 61.2297 17.5895 60.2316 16.3427 58.0138C17.4761 57.2376 19.0629 55.796 19.8562 53.7999C20.8763 51.3603 20.763 48.8098 20.763 47.3682C20.763 46.8138 20.3096 46.4811 19.8562 46.592C18.6095 47.0356 16.2294 47.9227 15.096 50.3623C14.6427 51.3603 14.416 52.4692 14.3026 53.5781C13.3959 51.2494 12.9426 50.1405 12.3759 47.7009C13.6226 47.2573 15.5494 46.2593 16.7961 44.3742C18.3828 42.2672 18.8362 39.7167 19.1762 38.386C19.2895 37.9424 18.9495 37.388 18.3828 37.4989C17.1361 37.6098 14.5293 37.9424 12.8292 40.0494C12.1492 40.8256 11.5825 41.9345 11.3558 42.9326C11.0158 40.493 10.9025 39.2731 10.9025 36.8335C12.2625 36.6118 14.3026 36.0573 16.0027 34.6157C18.0428 32.9523 19.1762 30.6236 19.7429 29.2929C19.9696 28.8493 19.7429 28.2949 19.2895 28.184C18.0428 27.9622 15.436 27.7404 13.2826 29.4038C12.3759 30.0692 11.6959 30.9563 11.1292 31.8434C11.3558 29.4038 11.5825 28.184 12.0359 25.7444C13.3959 25.8553 15.5494 25.7444 17.5895 24.7464C19.9696 23.5266 21.5563 21.4196 22.463 20.3107C22.803 19.8671 22.6897 19.3127 22.2364 19.2018C20.9896 18.7582 18.6095 17.982 16.1161 19.0909C15.096 19.5345 14.1893 20.1998 13.3959 21.0869C14.1893 18.7582 14.6427 17.5384 15.776 15.3206C17.1361 15.7642 19.1762 16.2077 21.443 15.5424C24.0498 14.877 26.2032 13.2137 27.3366 12.2156C27.79 11.883 27.79 11.3285 27.4499 10.9958C26.2032 10.2196 24.0498 8.88888 21.3296 9.44334Z" fill="#FFD500"/>
<path d="M93.8096 17H95.4971V8.78125H93.8096V17ZM94.6533 7.57812C95.2002 7.57812 95.6377 7.14844 95.6377 6.61719C95.6377 6.07812 95.2002 5.64844 94.6533 5.64844C94.1143 5.64844 93.6768 6.07812 93.6768 6.61719C93.6768 7.14844 94.1143 7.57812 94.6533 7.57812ZM107.138 12.3125V11.1641H102.497V12.5781H105.411V12.7734C105.388 14.4844 104.122 15.6562 102.294 15.6562C100.146 15.6562 98.8096 13.9922 98.8096 11.2969C98.8096 8.64844 100.106 7.07031 102.263 7.07031C103.731 7.07031 104.833 7.875 105.255 9.27344H107.052C106.661 7.02344 104.763 5.53906 102.255 5.53906C99.0439 5.53906 97.0205 7.75781 97.0205 11.3125C97.0205 14.9297 99.0518 17.1875 102.278 17.1875C105.333 17.1875 107.138 15.3672 107.138 12.3125ZM113.372 17C115.771 17 117.216 15.7969 117.216 13.8125C117.216 12.3125 116.185 11.2266 114.653 11.0547V10.9922C115.778 10.8047 116.661 9.73438 116.661 8.53906C116.661 6.83594 115.349 5.72656 113.349 5.72656H108.849V17H113.372ZM110.599 7.15625H112.927C114.192 7.15625 114.911 7.73438 114.911 8.78125C114.911 9.89844 114.075 10.5234 112.56 10.5234H110.599V7.15625ZM110.599 15.5703V11.8594H112.911C114.567 11.8594 115.427 12.4844 115.427 13.7031C115.427 14.9219 114.591 15.5703 113.013 15.5703H110.599ZM129.317 17H131.169L127.099 5.72656H125.208L121.138 17H122.958L123.989 13.9531H128.286L129.317 17ZM126.114 7.60156H126.161L127.841 12.5469H124.435L126.114 7.60156ZM132.638 17H134.333V10.1172H135.974V8.79688H134.31V8.02344C134.31 7.29688 134.653 6.92969 135.388 6.92969C135.614 6.92969 135.841 6.94531 136.005 6.97656V5.72656C135.786 5.6875 135.403 5.64844 135.06 5.64844C133.388 5.64844 132.638 6.39844 132.638 7.99219V8.79688H131.505V10.1172H132.638V17ZM137.794 17H139.489V10.1172H141.13V8.79688H139.466V8.02344C139.466 7.29688 139.81 6.92969 140.544 6.92969C140.771 6.92969 140.997 6.94531 141.161 6.97656V5.72656C140.942 5.6875 140.56 5.64844 140.216 5.64844C138.544 5.64844 137.794 6.39844 137.794 7.99219V8.79688H136.661V10.1172H137.794V17ZM142.513 17H144.2V8.78125H142.513V17ZM143.356 7.57812C143.903 7.57812 144.341 7.14844 144.341 6.61719C144.341 6.07812 143.903 5.64844 143.356 5.64844C142.817 5.64844 142.38 6.07812 142.38 6.61719C142.38 7.14844 142.817 7.57812 143.356 7.57812ZM145.989 17H147.677V5.72656H145.989V17ZM149.466 17H151.153V8.78125H149.466V17ZM150.31 7.57812C150.856 7.57812 151.294 7.14844 151.294 6.61719C151.294 6.07812 150.856 5.64844 150.31 5.64844C149.771 5.64844 149.333 6.07812 149.333 6.61719C149.333 7.14844 149.771 7.57812 150.31 7.57812ZM155.755 15.8047C154.849 15.8047 154.255 15.3359 154.255 14.6172C154.255 13.9141 154.825 13.4688 155.833 13.3984L157.856 13.2734V13.9219C157.856 14.9922 156.935 15.8047 155.755 15.8047ZM155.286 17.1406C156.364 17.1406 157.403 16.5625 157.88 15.6484H157.919V17H159.536V11.3359C159.536 9.6875 158.263 8.63281 156.271 8.63281C154.239 8.63281 152.974 9.72656 152.88 11.2109H154.474C154.622 10.4766 155.231 10.0078 156.208 10.0078C157.239 10.0078 157.856 10.5547 157.856 11.4688V12.1016L155.606 12.2344C153.653 12.3438 152.552 13.2266 152.552 14.6641C152.552 16.1406 153.677 17.1406 155.286 17.1406ZM161.669 6.83594V8.78125H160.474V10.1172H161.669V14.8359C161.669 16.4219 162.317 17.0547 163.981 17.0547C164.356 17.0547 164.731 17.0234 164.919 16.9766V15.6406C164.81 15.6641 164.536 15.6797 164.364 15.6797C163.677 15.6797 163.364 15.3594 163.364 14.6484V10.1172H164.927V8.78125H163.364V6.83594H161.669ZM169.552 9.99219C170.731 9.99219 171.528 10.875 171.567 12.1328H167.458C167.544 10.8906 168.372 9.99219 169.552 9.99219ZM171.56 14.5859C171.333 15.3047 170.622 15.7891 169.661 15.7891C168.31 15.7891 167.45 14.8438 167.45 13.4141V13.3125H173.255V12.7344C173.255 10.2422 171.833 8.63281 169.552 8.63281C167.231 8.63281 165.747 10.3516 165.747 12.9297C165.747 15.5234 167.208 17.1562 169.622 17.1562C171.505 17.1562 172.927 16.0859 173.161 14.5859H171.56ZM185.364 17H187.216L183.146 5.72656H181.255L177.185 17H179.005L180.036 13.9531H184.333L185.364 17ZM182.161 7.60156H182.208L183.888 12.5469H180.481L182.161 7.60156ZM198.489 8.78125H196.817L195.317 15.25H195.278L193.56 8.78125H191.935L190.224 15.25H190.192L188.692 8.78125H187.005L189.263 17H191.005L192.716 10.8438H192.755L194.481 17H196.239L198.489 8.78125ZM202.255 15.8047C201.349 15.8047 200.755 15.3359 200.755 14.6172C200.755 13.9141 201.325 13.4688 202.333 13.3984L204.356 13.2734V13.9219C204.356 14.9922 203.435 15.8047 202.255 15.8047ZM201.786 17.1406C202.864 17.1406 203.903 16.5625 204.38 15.6484H204.419V17H206.036V11.3359C206.036 9.6875 204.763 8.63281 202.771 8.63281C200.739 8.63281 199.474 9.72656 199.38 11.2109H200.974C201.122 10.4766 201.731 10.0078 202.708 10.0078C203.739 10.0078 204.356 10.5547 204.356 11.4688V12.1016L202.106 12.2344C200.153 12.3438 199.052 13.2266 199.052 14.6641C199.052 16.1406 200.177 17.1406 201.786 17.1406ZM207.677 17H209.364V12.0781C209.364 10.9141 210.036 10.1875 211.122 10.1875C211.45 10.1875 211.747 10.2266 211.88 10.2812V8.71094C211.755 8.6875 211.544 8.64844 211.302 8.64844C210.333 8.64844 209.599 9.21875 209.325 10.1797H209.286V8.78125H207.677V17ZM215.653 17.1406C216.849 17.1406 217.786 16.5391 218.271 15.6016H218.302V17H219.942V5.72656H218.247V10.1484H218.216C217.755 9.24219 216.817 8.64844 215.638 8.64844C213.575 8.64844 212.2 10.2969 212.2 12.8906C212.2 15.4844 213.575 17.1406 215.653 17.1406ZM216.099 10.0703C217.396 10.0703 218.263 11.1875 218.263 12.8906C218.263 14.6094 217.396 15.7109 216.099 15.7109C214.763 15.7109 213.927 14.625 213.927 12.8906C213.927 11.1641 214.763 10.0703 216.099 10.0703ZM221.528 11.1094C221.528 12.2578 222.278 13.0312 223.763 13.3906L225.231 13.75C226.091 13.9688 226.403 14.2578 226.403 14.7812C226.403 15.4453 225.778 15.8672 224.763 15.8672C223.731 15.8672 223.122 15.4297 222.989 14.6406H221.317C221.45 16.1484 222.739 17.1562 224.685 17.1562C226.7 17.1562 228.099 16.125 228.099 14.625C228.099 13.4141 227.474 12.7891 225.817 12.3906L224.435 12.0703C223.583 11.8594 223.177 11.5156 223.177 11.0078C223.177 10.3594 223.786 9.91406 224.7 9.91406C225.646 9.91406 226.247 10.375 226.325 11.1172H227.911C227.856 9.65625 226.575 8.63281 224.747 8.63281C222.825 8.63281 221.528 9.64062 221.528 11.1094ZM232.606 9.03125V9.04688H234.263V9.02344C234.263 7.85156 235.192 6.96094 236.427 6.96094C237.599 6.96094 238.505 7.75781 238.505 8.75781C238.505 9.64062 238.146 10.2344 236.771 11.6641L232.7 15.8125V17H240.411V15.5234H235.06V15.4844L237.88 12.6484C239.528 10.9609 240.231 9.98438 240.231 8.67188C240.231 6.88281 238.63 5.51562 236.481 5.51562C234.239 5.51562 232.606 7 232.606 9.03125ZM246.075 17.2109C248.778 17.2109 250.364 14.9375 250.364 11.3438C250.364 7.77344 248.771 5.51562 246.075 5.51562C243.388 5.51562 241.771 7.78125 241.771 11.3516C241.771 14.9453 243.372 17.2109 246.075 17.2109ZM246.075 15.7422C244.466 15.7422 243.544 14.0703 243.544 11.3516C243.544 8.67188 244.481 6.98438 246.075 6.98438C247.669 6.98438 248.599 8.66406 248.599 11.3516C248.599 14.0781 247.685 15.7422 246.075 15.7422ZM251.716 9.03125V9.04688H253.372V9.02344C253.372 7.85156 254.302 6.96094 255.536 6.96094C256.708 6.96094 257.614 7.75781 257.614 8.75781C257.614 9.64062 257.255 10.2344 255.88 11.6641L251.81 15.8125V17H259.521V15.5234H254.169V15.4844L256.989 12.6484C258.638 10.9609 259.341 9.98438 259.341 8.67188C259.341 6.88281 257.739 5.51562 255.591 5.51562C253.349 5.51562 251.716 7 251.716 9.03125ZM260.981 9.03125V9.04688H262.638V9.02344C262.638 7.85156 263.567 6.96094 264.802 6.96094C265.974 6.96094 266.88 7.75781 266.88 8.75781C266.88 9.64062 266.521 10.2344 265.146 11.6641L261.075 15.8125V17H268.786V15.5234H263.435V15.4844L266.255 12.6484C267.903 10.9609 268.606 9.98438 268.606 8.67188C268.606 6.88281 267.005 5.51562 264.856 5.51562C262.614 5.51562 260.981 7 260.981 9.03125Z" fill="white"/>
<path d="M52.1299 44V29.9082H48.7119L44.708 39.8984H44.6299L40.626 29.9082H37.208V44H39.835V34.4883H39.9131L43.7412 43.8633H45.5967L49.4248 34.4883H49.5029V44H52.1299ZM58.0381 42.1055C57.0713 42.1055 56.4268 41.6172 56.4268 40.8359C56.4268 40.0938 57.0322 39.6152 58.0967 39.5371L60.3037 39.4004V40.1621C60.3037 41.2949 59.2783 42.1055 58.0381 42.1055ZM57.1006 44.166C58.4092 44.166 59.708 43.5117 60.2939 42.3984H60.3525V44H63.1064V36.8027C63.1064 34.6934 61.3584 33.3066 58.6729 33.3066C55.8994 33.3066 54.1709 34.7031 54.0635 36.7344H56.6709C56.8076 35.9629 57.4814 35.4355 58.5459 35.4355C59.6201 35.4355 60.3037 36.002 60.3037 36.9785V37.6719L57.667 37.8281C55.0596 37.9844 53.5947 39.0879 53.5947 40.9922C53.5947 42.877 55.1084 44.166 57.1006 44.166ZM64.9521 44H67.8037V38.1504C67.8037 36.6758 68.624 35.8164 70.0303 35.8164C70.4404 35.8164 70.8311 35.8848 71.0654 35.9824V33.4727C70.8701 33.4141 70.5869 33.3652 70.2549 33.3652C69.0244 33.3652 68.1357 34.0879 67.7646 35.416H67.7061V33.5312H64.9521V44ZM75.1963 37.7305H75.1572V29.9082H72.3057V44H75.1572V40.543L75.8994 39.7422L78.8975 44H82.1787L77.9893 38.0234L81.9834 33.5312H78.751L75.1963 37.7305ZM87.208 35.416C88.4775 35.416 89.3467 36.334 89.4053 37.6719H84.9619C85.0596 36.3633 85.958 35.416 87.208 35.416ZM89.4443 40.7969C89.1807 41.5977 88.3799 42.1152 87.335 42.1152C85.8799 42.1152 84.9326 41.0898 84.9326 39.5957V39.4199H92.1494V38.5508C92.1494 35.3672 90.2256 33.3066 87.1787 33.3066C84.083 33.3066 82.1299 35.4746 82.1299 38.8145C82.1299 42.1641 84.0635 44.2246 87.2861 44.2246C89.874 44.2246 91.749 42.8477 92.0615 40.7969H89.4443ZM94.3857 31.1191V33.5312H92.9111V35.6797H94.3857V41.1777C94.3857 43.2188 95.3428 44.0391 97.8037 44.0391C98.3799 44.0391 98.8682 43.9902 99.1611 43.9219V41.8223C98.9854 41.8516 98.7217 41.8711 98.4678 41.8711C97.6279 41.8711 97.2373 41.4902 97.2373 40.6895V35.6797H99.1709V33.5312H97.2373V31.1191H94.3857ZM100.782 44H103.634V33.5312H100.782V44ZM102.208 32.3789C103.067 32.3789 103.731 31.7246 103.731 30.9043C103.731 30.0742 103.067 29.4297 102.208 29.4297C101.349 29.4297 100.685 30.0742 100.685 30.9043C100.685 31.7246 101.349 32.3789 102.208 32.3789ZM105.538 44H108.39V37.9941C108.39 36.6367 109.2 35.6992 110.479 35.6992C111.759 35.6992 112.403 36.4805 112.403 37.8477V44H115.255V37.252C115.255 34.8008 113.946 33.3359 111.622 33.3359C110.011 33.3359 108.907 34.0977 108.351 35.3965H108.292V33.5312H105.538V44ZM121.896 41.7734C120.479 41.7734 119.601 40.6602 119.601 38.7461C119.601 36.8418 120.489 35.6504 121.896 35.6504C123.321 35.6504 124.229 36.8613 124.229 38.7461C124.229 40.6406 123.321 41.7734 121.896 41.7734ZM121.847 47.9453C124.981 47.9453 127.071 46.3535 127.071 43.8535V33.5312H124.259V35.3574H124.21C123.663 34.1562 122.481 33.3652 120.978 33.3652C118.321 33.3652 116.681 35.4062 116.681 38.7266C116.681 41.998 118.37 43.9707 120.929 43.9707C122.442 43.9707 123.673 43.209 124.161 42.0957H124.22V43.9316C124.22 45.1426 123.399 45.9629 121.925 45.9629C120.841 45.9629 120.021 45.4648 119.796 44.7422H117.003C117.228 46.6074 119.093 47.9453 121.847 47.9453ZM139.376 44.2441C142.833 44.2441 145.245 42.252 145.577 39.1074H142.706C142.394 40.7773 141.134 41.8027 139.386 41.8027C137.13 41.8027 135.714 39.9473 135.714 36.9395C135.714 33.9707 137.149 32.1055 139.376 32.1055C141.095 32.1055 142.423 33.2383 142.696 34.9668H145.567C145.343 31.8125 142.765 29.6641 139.376 29.6641C135.294 29.6641 132.706 32.4082 132.706 36.9492C132.706 41.5 135.274 44.2441 139.376 44.2441ZM151.144 42.1055C150.177 42.1055 149.532 41.6172 149.532 40.8359C149.532 40.0938 150.138 39.6152 151.202 39.5371L153.409 39.4004V40.1621C153.409 41.2949 152.384 42.1055 151.144 42.1055ZM150.206 44.166C151.515 44.166 152.813 43.5117 153.399 42.3984H153.458V44H156.212V36.8027C156.212 34.6934 154.464 33.3066 151.778 33.3066C149.005 33.3066 147.276 34.7031 147.169 36.7344H149.776C149.913 35.9629 150.587 35.4355 151.651 35.4355C152.726 35.4355 153.409 36.002 153.409 36.9785V37.6719L150.772 37.8281C148.165 37.9844 146.7 39.0879 146.7 40.9922C146.7 42.877 148.214 44.166 150.206 44.166ZM158.058 44H160.909V37.6816C160.909 36.5098 161.642 35.6895 162.726 35.6895C163.78 35.6895 164.415 36.3535 164.415 37.4766V44H167.159V37.6426C167.159 36.4805 167.872 35.6895 168.956 35.6895C170.06 35.6895 170.665 36.3535 170.665 37.5645V44H173.517V36.8516C173.517 34.7422 172.14 33.3359 170.089 33.3359C168.556 33.3359 167.306 34.166 166.837 35.4844H166.778C166.427 34.1172 165.372 33.3359 163.858 33.3359C162.433 33.3359 161.31 34.166 160.87 35.4258H160.812V33.5312H158.058V44ZM181.437 33.3652C179.923 33.3652 178.761 34.127 178.194 35.3574H178.136V33.5312H175.323V47.418H178.175V42.2422H178.233C178.79 43.4238 179.962 44.166 181.485 44.166C184.103 44.166 185.724 42.1348 185.724 38.7656C185.724 35.3867 184.093 33.3652 181.437 33.3652ZM180.479 41.8711C179.083 41.8711 178.165 40.6602 178.165 38.7656C178.165 36.8906 179.083 35.6504 180.479 35.6504C181.905 35.6504 182.804 36.8711 182.804 38.7656C182.804 40.6699 181.905 41.8711 180.479 41.8711ZM191.241 42.1055C190.274 42.1055 189.63 41.6172 189.63 40.8359C189.63 40.0938 190.235 39.6152 191.3 39.5371L193.507 39.4004V40.1621C193.507 41.2949 192.481 42.1055 191.241 42.1055ZM190.304 44.166C191.612 44.166 192.911 43.5117 193.497 42.3984H193.556V44H196.31V36.8027C196.31 34.6934 194.562 33.3066 191.876 33.3066C189.103 33.3066 187.374 34.7031 187.267 36.7344H189.874C190.011 35.9629 190.685 35.4355 191.749 35.4355C192.823 35.4355 193.507 36.002 193.507 36.9785V37.6719L190.87 37.8281C188.263 37.9844 186.798 39.0879 186.798 40.9922C186.798 42.877 188.312 44.166 190.304 44.166ZM198.204 44H201.056V33.5312H198.204V44ZM199.63 32.3789C200.489 32.3789 201.153 31.7246 201.153 30.9043C201.153 30.0742 200.489 29.4297 199.63 29.4297C198.771 29.4297 198.106 30.0742 198.106 30.9043C198.106 31.7246 198.771 32.3789 199.63 32.3789ZM207.794 41.7734C206.378 41.7734 205.499 40.6602 205.499 38.7461C205.499 36.8418 206.388 35.6504 207.794 35.6504C209.22 35.6504 210.128 36.8613 210.128 38.7461C210.128 40.6406 209.22 41.7734 207.794 41.7734ZM207.745 47.9453C210.88 47.9453 212.97 46.3535 212.97 43.8535V33.5312H210.157V35.3574H210.108C209.562 34.1562 208.38 33.3652 206.876 33.3652C204.22 33.3652 202.579 35.4062 202.579 38.7266C202.579 41.998 204.269 43.9707 206.827 43.9707C208.341 43.9707 209.571 43.209 210.06 42.0957H210.118V43.9316C210.118 45.1426 209.298 45.9629 207.823 45.9629C206.739 45.9629 205.919 45.4648 205.694 44.7422H202.901C203.126 46.6074 204.991 47.9453 207.745 47.9453ZM214.835 44H217.687V37.9941C217.687 36.6367 218.497 35.6992 219.776 35.6992C221.056 35.6992 221.7 36.4805 221.7 37.8477V44H224.552V37.252C224.552 34.8008 223.243 33.3359 220.919 33.3359C219.308 33.3359 218.204 34.0977 217.647 35.3965H217.589V33.5312H214.835V44ZM235.128 44.2246C238.292 44.2246 240.313 42.2031 240.313 38.7559C240.313 35.3574 238.263 33.3066 235.128 33.3066C231.993 33.3066 229.942 35.3672 229.942 38.7559C229.942 42.1934 231.964 44.2246 235.128 44.2246ZM235.128 42.0469C233.722 42.0469 232.833 40.8652 232.833 38.7656C232.833 36.6855 233.741 35.4844 235.128 35.4844C236.515 35.4844 237.413 36.6855 237.413 38.7656C237.413 40.8652 236.524 42.0469 235.128 42.0469ZM242.55 44H245.401V35.6797H247.413V33.5801H245.333V32.8867C245.333 32.1445 245.743 31.7344 246.681 31.7344C246.964 31.7344 247.247 31.7539 247.452 31.793V29.9082C247.12 29.8398 246.524 29.7812 245.997 29.7812C243.517 29.7812 242.55 30.7383 242.55 32.7891V33.5801H241.124V35.6797H242.55V44ZM253.644 31.1191V33.5312H252.169V35.6797H253.644V41.1777C253.644 43.2188 254.601 44.0391 257.062 44.0391C257.638 44.0391 258.126 43.9902 258.419 43.9219V41.8223C258.243 41.8516 257.979 41.8711 257.726 41.8711C256.886 41.8711 256.495 41.4902 256.495 40.6895V35.6797H258.429V33.5312H256.495V31.1191H253.644ZM260.06 44H262.911V38.0234C262.911 36.6465 263.702 35.6992 265.05 35.6992C266.349 35.6992 267.013 36.5195 267.013 37.8672V44H269.864V37.2617C269.864 34.8398 268.536 33.3359 266.212 33.3359C264.62 33.3359 263.478 34.0781 262.921 35.3965H262.862V29.9082H260.06V44ZM276.388 35.416C277.657 35.416 278.526 36.334 278.585 37.6719H274.142C274.239 36.3633 275.138 35.416 276.388 35.416ZM278.624 40.7969C278.36 41.5977 277.56 42.1152 276.515 42.1152C275.06 42.1152 274.112 41.0898 274.112 39.5957V39.4199H281.329V38.5508C281.329 35.3672 279.405 33.3066 276.358 33.3066C273.263 33.3066 271.31 35.4746 271.31 38.8145C271.31 42.1641 273.243 44.2246 276.466 44.2246C279.054 44.2246 280.929 42.8477 281.241 40.7969H278.624ZM293.966 44V38.7363L298.878 29.9082H295.714L292.55 35.9238H292.481L289.327 29.9082H286.114L291.017 38.7363V44H293.966ZM302.618 35.416C303.888 35.416 304.757 36.334 304.815 37.6719H300.372C300.47 36.3633 301.368 35.416 302.618 35.416ZM304.854 40.7969C304.591 41.5977 303.79 42.1152 302.745 42.1152C301.29 42.1152 300.343 41.0898 300.343 39.5957V39.4199H307.56V38.5508C307.56 35.3672 305.636 33.3066 302.589 33.3066C299.493 33.3066 297.54 35.4746 297.54 38.8145C297.54 42.1641 299.474 44.2246 302.696 44.2246C305.284 44.2246 307.159 42.8477 307.472 40.7969H304.854ZM313.077 42.1055C312.11 42.1055 311.466 41.6172 311.466 40.8359C311.466 40.0938 312.071 39.6152 313.136 39.5371L315.343 39.4004V40.1621C315.343 41.2949 314.317 42.1055 313.077 42.1055ZM312.14 44.166C313.448 44.166 314.747 43.5117 315.333 42.3984H315.392V44H318.146V36.8027C318.146 34.6934 316.397 33.3066 313.712 33.3066C310.938 33.3066 309.21 34.7031 309.103 36.7344H311.71C311.847 35.9629 312.521 35.4355 313.585 35.4355C314.659 35.4355 315.343 36.002 315.343 36.9785V37.6719L312.706 37.8281C310.099 37.9844 308.634 39.0879 308.634 40.9922C308.634 42.877 310.147 44.166 312.14 44.166ZM319.991 44H322.843V38.1504C322.843 36.6758 323.663 35.8164 325.069 35.8164C325.479 35.8164 325.87 35.8848 326.104 35.9824V33.4727C325.909 33.4141 325.626 33.3652 325.294 33.3652C324.063 33.3652 323.175 34.0879 322.804 35.416H322.745V33.5312H319.991V44Z" fill="#FFD500"/>
<path d="M159.289 58.5625H159.357L161.49 66H162.932L165.598 56.1357H164.005L162.18 63.8604H162.126L160.034 56.1357H158.612L156.527 63.8604H156.472L154.647 56.1357H153.054L155.713 66H157.163L159.289 58.5625ZM169.186 66V56.1357H167.655V66H169.186ZM173.335 66V58.7334H173.396L178.51 66H179.891V56.1357H178.4V63.4092H178.346L173.232 56.1357H171.845V66H173.335ZM184.046 66V58.7334H184.108L189.221 66H190.602V56.1357H189.111V63.4092H189.057L183.943 56.1357H182.556V66H184.046ZM199.529 64.6738H194.798V61.6113H199.276V60.3398H194.798V57.4551H199.529V56.1357H193.267V66H199.529V64.6738ZM203.472 57.4209H205.578C206.76 57.4209 207.478 58.0908 207.478 59.1914C207.478 60.3193 206.801 60.9688 205.619 60.9688H203.472V57.4209ZM203.472 62.2061H205.578L207.587 66H209.351L207.143 61.9668C208.346 61.5635 209.057 60.4834 209.057 59.1504C209.057 57.3115 207.792 56.1357 205.762 56.1357H201.941V66H203.472V62.2061Z" fill="white"/>
<path d="M358.146 46.8138C360.536 44.9262 361.787 41.3731 362.356 39.4855C362.47 38.8193 362.242 38.0421 361.674 38.0421C360.308 38.0421 357.919 38.4862 355.757 40.4848C354.847 41.2621 354.164 42.2614 353.595 43.2607C353.937 40.7069 354.05 39.3745 354.164 36.8207C355.53 36.7097 357.691 36.1545 359.284 34.1559C361.105 31.8242 361.56 28.049 361.56 26.0504C361.56 25.2732 361.105 24.718 360.65 24.8291C359.398 25.1622 357.122 26.1615 355.53 28.4932C354.847 29.4925 354.392 30.6028 354.05 31.6021C353.823 29.0483 353.595 27.7159 353.026 25.2732C354.392 24.8291 356.326 23.8298 357.35 21.498C358.602 18.8332 358.146 14.947 357.578 12.9484C357.35 12.2822 356.781 11.7271 356.326 11.9491C355.188 12.5043 353.14 14.0588 352.23 16.7236C351.889 17.8339 351.661 19.0553 351.547 20.1656C350.751 17.7229 350.182 16.5015 349.044 14.0588C350.182 13.2815 351.889 11.9491 352.344 9.39536C352.913 6.39744 351.434 2.73333 350.41 0.845751C350.068 0.179547 349.272 -0.153555 348.93 0.0685128C347.906 0.956784 346.427 2.84436 346.2 5.73124C346.086 6.95261 346.2 8.17398 346.427 9.28432C344.834 6.84158 343.924 5.62021 341.99 3.39953C341.307 2.62229 340.283 2.40022 339.714 2.84436C339.145 3.28849 339.373 4.2878 339.942 5.06504C341.876 7.17468 342.673 8.39605 344.152 10.7278C343.242 10.0616 342.104 9.61742 340.966 9.39536C338.235 8.84019 336.073 10.1726 334.936 10.9498C334.594 11.1719 334.594 11.8381 335.049 12.1712C336.187 13.0595 338.349 14.725 340.966 15.5022C343.241 16.0574 345.29 15.7243 346.655 15.2801C347.793 17.5008 348.248 18.7222 349.044 21.0539C348.248 20.2767 347.338 19.4994 346.314 19.0553C343.81 17.945 341.307 18.7222 340.169 19.1663C339.714 19.3884 339.601 19.9436 339.942 20.2767C340.852 21.387 342.559 23.4967 344.834 24.718C346.882 25.7173 349.044 25.8284 350.41 25.7173C350.978 28.1601 351.092 29.3814 351.32 31.8242C350.751 30.9359 350.068 30.0477 349.158 29.3814C346.996 27.827 344.379 27.938 343.128 28.1601C342.673 28.2711 342.445 28.7152 342.673 29.2704C343.241 30.4918 344.379 32.9345 346.427 34.6C348.134 36.0435 350.182 36.5986 351.547 36.8207C351.547 39.2635 351.434 40.4848 351.092 42.9276C350.751 41.9283 350.296 40.8179 349.613 40.0407C347.906 38.0421 345.29 37.598 344.038 37.4869C343.583 37.4869 343.241 37.9311 343.241 38.3752C343.469 39.7076 344.038 42.2614 345.631 44.371C346.996 46.1476 348.817 47.2579 350.068 47.702C349.499 50.0337 349.044 51.2551 348.134 53.5868C348.02 52.4765 347.793 51.3661 347.338 50.3668C346.086 47.9241 343.81 47.0358 342.559 46.5917C342.104 46.4807 341.649 46.8138 341.649 47.3689C341.535 48.7013 341.535 51.3662 342.559 53.8089C343.469 55.9185 344.948 57.362 346.086 58.0282C344.948 60.2489 344.266 61.3592 342.673 63.3578C342.9 62.2475 342.9 61.1371 342.673 60.0268C342.104 57.362 340.056 55.9185 338.918 55.2523C338.463 55.0303 338.008 55.2523 337.78 55.8075C337.325 57.1399 336.642 59.8047 336.984 62.3585C337.325 64.5792 338.463 66.3557 339.373 67.355C338.577 68.2433 338.235 68.5764 337.325 69.4647C336.642 70.1309 336.415 71.1302 336.87 71.6853C337.325 72.2405 338.463 72.0184 339.145 71.3522C340.056 70.464 340.397 70.0198 341.307 69.1316C342.445 69.9088 344.379 70.7971 347.11 70.2419C350.182 69.5757 353.026 66.9109 354.392 65.2454C354.847 64.6902 354.961 63.913 354.506 63.6909C353.368 63.1357 350.978 62.4695 348.134 63.3578C346.996 63.6909 345.858 64.2461 344.834 64.9123C346.427 62.6916 347.11 61.5813 348.362 59.2495C349.613 59.6937 351.775 60.2489 354.164 59.1385C356.895 57.8061 359.057 54.5861 359.967 52.8096C360.308 52.1434 360.194 51.3661 359.739 51.2551C358.488 51.033 355.985 50.811 353.482 52.2544C352.458 52.8096 351.547 53.5868 350.637 54.4751C351.661 52.0324 352.002 50.811 352.685 48.2572C353.937 48.4793 356.098 48.3682 358.146 46.8138Z" fill="#FFD500"/>
</svg>
