<?xml version="1.0" encoding="UTF-8"?>
<svg viewBox="0 0 312 72" xmlns="http://www.w3.org/2000/svg"><path d="m21.33 9.4433c-1.1333 0.22178-2.1534 0.66536-3.1734 1.3307 1.4734-2.3287 2.3801-3.4376 4.1935-5.6554 0.68-0.77624 0.7934-1.7743 0.2267-2.2178-0.5667-0.44356-1.5868-0.22178-2.2668 0.55446-2.0401 2.2178-2.8335 3.4376-4.4202 5.8772 0.2267-1.1089 0.34-2.3287 0.2267-3.5485-0.2267-2.8832-1.8135-4.8792-2.7202-5.6555-0.34-0.33268-1.1334 1e-6 -1.4734 0.77624-1.02 1.8852-2.4934 5.5446-1.9267 8.5386 0.45333 2.5505 2.1534 3.9921 3.2868 4.6575-1.1334 2.3287-1.7001 3.5485-2.4935 6.099-0.1133-1.1089-0.34-2.3287-0.68-3.4376-0.9067-2.7723-2.9468-4.2139-4.0802-4.7684-0.45336-0.2217-1.02 0.3327-1.2467 0.9981-0.45335 1.996-1.02 5.7663 0.22668 8.5386 1.02 2.3287 3.0602 3.3268 4.3069 3.7703-0.56669 2.5505-0.79337 3.7703-1.02 6.3208-0.34001-1.1089-0.79337-2.2178-1.4734-3.1049-1.5867-2.4396-3.8535-3.3268-5.1002-3.6594-0.45336-0.1109-0.90671 0.4435-0.90671 1.2198 0 1.996 0.45335 5.7663 2.2668 8.095 1.5867 1.9961 3.7402 2.5505 5.1002 2.6614 0 2.5505 0.11334 3.8812 0.5667 6.4317-0.5667-0.998-1.3601-1.8851-2.1534-2.7722-2.1534-1.9961-4.5336-2.4397-5.8936-2.4397-0.45336 0-0.79337 0.6654-0.68003 1.4416 0.45336 1.9961 1.8134 5.5446 4.1935 7.3189 2.0401 1.5524 4.1935 1.6633 5.5536 1.4416 0.68 2.5505 1.02 3.7703 2.0401 6.2099-0.7934-0.7763-1.8134-1.5525-2.8335-2.2178-2.4935-1.4416-4.9869-1.3307-6.2336-0.9981-0.45336 0.1109-0.5667 0.8872-0.22668 1.5525 0.90671 1.7743 3.0601 4.9901 5.7803 6.3208 2.3801 1.1089 4.5335 0.6654 5.7803 0.1109 1.2467 2.3287 1.9267 3.4377 3.5135 5.6555-1.0201-0.5545-2.1535-1.2198-3.2869-1.5525-2.8334-0.8871-5.2135-0.2218-6.3469 0.3327-0.45336 0.2218-0.34002 0.998 0.11334 1.5525 1.3601 1.5524 4.3069 4.2138 7.2537 4.9901 2.6068 0.5544 4.5335-0.3327 5.7803-1.1089 0.7933 0.8871 1.2467 1.3307 2.1534 2.2178 0.7934 0.7762 1.8134 0.8871 2.2668 0.3327 0.4533-0.5545 0.2267-1.4416-0.4534-2.2179-0.7933-0.7762-1.2467-1.2198-2.0401-2.1069 0.9067-0.998 2.0401-2.7723 2.3801-4.9901 0.3401-2.6614-0.34-5.2119-0.7933-6.5426-0.1134-0.4436-0.6801-0.7763-1.1334-0.5545-1.1334 0.6654-3.1735 2.107-3.7402 4.7684-0.2267 1.1089-0.2267 2.2178 0 3.3267-1.4734-2.1069-2.1534-3.105-3.4002-5.3228 1.1334-0.7762 2.7202-2.2178 3.5135-4.2139 1.0201-2.4396 0.9068-4.9901 0.9068-6.4317 0-0.5544-0.4534-0.8871-0.9068-0.7762-1.2467 0.4436-3.6268 1.3307-4.7602 3.7703-0.4533 0.998-0.68 2.1069-0.7934 3.2158-0.9067-2.3287-1.36-3.4376-1.9267-5.8772 1.2467-0.4436 3.1735-1.4416 4.4202-3.3267 1.5867-2.107 2.0401-4.6575 2.3801-5.9882 0.1133-0.4436-0.2267-0.998-0.7934-0.8871-1.2467 0.1109-3.8535 0.4435-5.5536 2.5505-0.68 0.7762-1.2467 1.8851-1.4734 2.8832-0.34-2.4396-0.4533-3.6595-0.4533-6.0991 1.36-0.2217 3.4001-0.7762 5.1002-2.2178 2.0401-1.6634 3.1735-3.9921 3.7402-5.3228 0.2267-0.4436 0-0.998-0.4534-1.1089-1.2467-0.2218-3.8535-0.4436-6.0069 1.2198-0.9067 0.6654-1.5867 1.5525-2.1534 2.4396 0.2266-2.4396 0.4533-3.6594 0.9067-6.099 1.36 0.1109 3.5135 0 5.5536-0.998 2.3801-1.2198 3.9668-3.3268 4.8735-4.4357 0.34-0.4436 0.2267-0.998-0.2266-1.1089-1.2468-0.4436-3.6269-1.2198-6.1203-0.1109-1.0201 0.4436-1.9268 1.1089-2.7202 1.996 0.7934-2.3287 1.2468-3.5485 2.3801-5.7663 1.3601 0.4436 3.4002 0.8871 5.667 0.2218 2.6068-0.6654 4.7602-2.3287 5.8936-3.3268 0.4534-0.3326 0.4534-0.8871 0.1133-1.2198-1.2467-0.7762-3.4001-2.1069-6.1203-1.5525z" fill="#93BBF4"/><path d="m69.169 15.484h-5.4062v-3.5h5.1172v-1.4532h-5.1172v-3.2968h5.4062v-1.5078h-7.1562v11.273h7.1562v-1.5156zm11.508-3.1719v-1.1484h-4.6407v1.414h2.9141v0.1953c-0.0234 1.711-1.2891 2.8828-3.1172 2.8828-2.1484 0-3.4844-1.664-3.4844-4.3593 0-2.6485 1.2969-4.2266 3.4532-4.2266 1.4687 0 2.5703 0.80469 2.9921 2.2031h1.7969c-0.3906-2.25-2.289-3.7344-4.7969-3.7344-3.2109 0-5.2343 2.2188-5.2343 5.7734 0 3.6172 2.0312 5.875 5.2578 5.875 3.0547 0 4.8594-1.8203 4.8594-4.875zm3.4609-5.1172h2.4062c1.3516 0 2.1719 0.76563 2.1719 2.0234 0 1.289-0.7734 2.0312-2.125 2.0312h-2.4531v-4.0547zm0 5.4688h2.4062l2.2969 4.3359h2.0156l-2.5234-4.6094c1.375-0.4609 2.1875-1.6953 2.1875-3.2187 0-2.1016-1.4453-3.4453-3.7656-3.4453h-4.3672v11.273h1.75v-4.3359zm16.203-7.125c-3.2502 0-5.2814 2.2422-5.2814 5.8281 0 3.5859 2.0312 5.8203 5.2814 5.8203 3.242 0 5.281-2.2344 5.281-5.8203 0-3.586-2.039-5.8281-5.281-5.8281zm0 1.5391c2.14 0 3.484 1.6563 3.484 4.2891 0 2.625-1.344 4.2812-3.484 4.2812-2.1408 0-3.4924-1.6562-3.4924-4.2812 0-2.6328 1.3516-4.2891 3.4924-4.2891zm11.031 1.5703c-1.187 0-2.133 0.60156-2.617 1.5469h-0.031v-1.414h-1.633v10.938h1.687v-4.0704h0.039c0.469 0.9141 1.407 1.4922 2.586 1.4922 2.063 0 3.43-1.6484 3.43-4.25 0-2.6015-1.375-4.2422-3.461-4.2422zm-0.445 7.0625c-1.297 0-2.156-1.1093-2.156-2.8203 0-1.6953 0.867-2.8203 2.156-2.8203 1.336 0 2.172 1.1016 2.172 2.8203 0 1.7266-0.836 2.8203-2.172 2.8203zm8.648-5.7187c1.18 0 1.977 0.88281 2.016 2.1406h-4.11c0.086-1.2422 0.915-2.1406 2.094-2.1406zm2.008 4.5937c-0.227 0.7188-0.937 1.2032-1.898 1.2032-1.352 0-2.211-0.9453-2.211-2.375v-0.1016h5.804v-0.5781c0-2.4922-1.422-4.1016-3.703-4.1016-2.32 0-3.804 1.7188-3.804 4.2969 0 2.5937 1.46 4.2265 3.875 4.2265 1.882 0 3.304-1.0703 3.539-2.5703h-1.602zm3.008 2.4141h1.687v-4.9219c0-1.164 0.672-1.8906 1.758-1.8906 0.328 0 0.625 0.0391 0.758 0.0937v-1.5703c-0.125-0.02344-0.336-0.0625-0.578-0.0625-0.969 0-1.703 0.57031-1.977 1.5313h-0.039v-1.3984h-1.609v8.2188zm7.953-1.1953c-0.906 0-1.5-0.4688-1.5-1.1875 0-0.7031 0.57-1.1484 1.578-1.2188l2.024-0.125v0.6485c0 1.0703-0.922 1.8828-2.102 1.8828zm-0.469 1.3359c1.078 0 2.117-0.5781 2.594-1.4922h0.039v1.3516h1.617v-5.6641c0-1.6484-1.273-2.7031-3.265-2.7031-2.032 0-3.297 1.0938-3.391 2.5781h1.594c0.148-0.7343 0.758-1.2031 1.734-1.2031 1.031 0 1.649 0.5469 1.649 1.461v0.6328l-2.25 0.1328c-1.954 0.1094-3.055 0.9922-3.055 2.4297 0 1.4765 1.125 2.4765 2.734 2.4765zm6.383-10.305v1.9453h-1.195v1.336h1.195v4.7187c0 1.586 0.648 2.2188 2.313 2.2188 0.375 0 0.75-0.0313 0.937-0.0781v-1.336c-0.109 0.0235-0.383 0.0391-0.555 0.0391-0.687 0-1-0.3203-1-1.0313v-4.5312h1.563v-1.336h-1.563v-1.9453h-1.695zm7.977 10.32c2.351 0 3.898-1.6171 3.898-4.2656 0-2.6406-1.555-4.2578-3.898-4.2578-2.344 0-3.899 1.6172-3.899 4.2578 0 2.6485 1.547 4.2656 3.899 4.2656zm0-1.3906c-1.321 0-2.18-1.0468-2.18-2.875 0-1.8203 0.859-2.8672 2.18-2.8672 1.32 0 2.179 1.0469 2.179 2.8672 0 1.8282-0.851 2.875-2.179 2.875zm5.203 1.2344h1.687v-4.9219c0-1.164 0.672-1.8906 1.758-1.8906 0.328 0 0.625 0.0391 0.758 0.0937v-1.5703c-0.125-0.02344-0.336-0.0625-0.578-0.0625-0.969 0-1.703 0.57031-1.977 1.5313h-0.039v-1.3984h-1.609v8.2188zm16.047 0h1.851l-4.07-11.273h-1.891l-4.07 11.273h1.82l1.031-3.0469h4.297l1.032 3.0469zm-3.204-9.3984h0.047l1.68 4.9453h-3.406l1.679-4.9453zm16.329 1.1797h-1.672l-1.5 6.4688h-0.039l-1.719-6.4688h-1.625l-1.711 6.4688h-0.031l-1.5-6.4688h-1.688l2.258 8.2188h1.742l1.711-6.1562h0.039l1.727 6.1562h1.758l2.25-8.2188zm3.765 7.0234c-0.906 0-1.5-0.4688-1.5-1.1875 0-0.7031 0.571-1.1484 1.578-1.2188l2.024-0.125v0.6485c0 1.0703-0.922 1.8828-2.102 1.8828zm-0.469 1.3359c1.079 0 2.118-0.5781 2.594-1.4922h0.039v1.3516h1.617v-5.6641c0-1.6484-1.273-2.7031-3.265-2.7031-2.031 0-3.297 1.0938-3.391 2.5781h1.594c0.148-0.7343 0.758-1.2031 1.734-1.2031 1.032 0 1.649 0.5469 1.649 1.461v0.6328l-2.25 0.1328c-1.953 0.1094-3.055 0.9922-3.055 2.4297 0 1.4765 1.125 2.4765 2.734 2.4765zm5.891-0.1406h1.688v-4.9219c0-1.164 0.671-1.8906 1.757-1.8906 0.329 0 0.625 0.0391 0.758 0.0937v-1.5703c-0.125-0.02344-0.336-0.0625-0.578-0.0625-0.969 0-1.703 0.57031-1.976 1.5313h-0.04v-1.3984h-1.609v8.2188zm7.977 0.1406c1.195 0 2.132-0.6015 2.617-1.539h0.031v1.3984h1.641v-11.273h-1.696v4.4218h-0.031c-0.461-0.90621-1.398-1.5-2.578-1.5-2.062 0-3.437 1.6485-3.437 4.2422 0 2.5938 1.375 4.25 3.453 4.25zm0.445-7.0703c1.297 0 2.164 1.1172 2.164 2.8203 0 1.7188-0.867 2.8203-2.164 2.8203-1.336 0-2.172-1.0859-2.172-2.8203 0-1.7265 0.836-2.8203 2.172-2.8203zm5.43 1.0391c0 1.1484 0.75 1.9218 2.234 2.2812l1.469 0.3594c0.859 0.2188 1.172 0.5078 1.172 1.0312 0 0.6641-0.625 1.086-1.641 1.086-1.031 0-1.641-0.4375-1.773-1.2266h-1.672c0.133 1.5078 1.422 2.5156 3.367 2.5156 2.016 0 3.414-1.0312 3.414-2.5312 0-1.2109-0.625-1.8359-2.281-2.2344l-1.383-0.3203c-0.852-0.2109-1.258-0.5547-1.258-1.0625 0-0.6484 0.609-1.0937 1.524-1.0937 0.945 0 1.546 0.46094 1.625 1.2031h1.585c-0.054-1.461-1.335-2.4844-3.164-2.4844-1.921 0-3.218 1.0078-3.218 2.4766zm11.078-2.0782v0.01563h1.656v-0.02344c0-1.1719 0.93-2.0625 2.164-2.0625 1.172 0 2.078 0.79687 2.078 1.7969 0 0.88281-0.359 1.4766-1.734 2.9063l-4.07 4.1484v1.1875h7.71v-1.4766h-5.351v-0.039l2.82-2.836c1.649-1.6875 2.352-2.664 2.352-3.9765 0-1.7891-1.602-3.1563-3.75-3.1563-2.242 0-3.875 1.4844-3.875 3.5156zm13.469 8.1796c2.703 0 4.289-2.2734 4.289-5.8671 0-3.5704-1.594-5.8282-4.289-5.8282-2.688 0-4.305 2.2656-4.305 5.836 0 3.5937 1.601 5.8593 4.305 5.8593zm0-1.4687c-1.61 0-2.532-1.6719-2.532-4.3906 0-2.6797 0.938-4.3672 2.532-4.3672 1.593 0 2.523 1.6797 2.523 4.3672 0 2.7265-0.914 4.3906-2.523 4.3906zm8.585 1.2578h1.711v-11.273h-1.726l-2.969 2.1094v1.7188l2.945-2.0938h0.039v9.5391zm8.243 0.2109c2.828 0 4.5-2.2343 4.5-6.0078 0-1.3203-0.235-2.4297-0.696-3.3281-0.726-1.5156-2.07-2.3672-3.742-2.3672-2.383 0-4.117 1.6406-4.117 3.8984 0 2.1406 1.602 3.7266 3.742 3.7266 1.453 0 2.641-0.7344 3.094-1.8437h0.016 0.015c0 2.8437-1.031 4.4687-2.789 4.4687-1.039 0-1.898-0.6172-2.164-1.539h-1.758c0.336 1.789 1.891 2.9921 3.899 2.9921zm0.062-5.5078c-1.367 0-2.375-1-2.375-2.3515 0-1.3125 1.055-2.3516 2.399-2.3516 1.343 0 2.39 1.0469 2.39 2.3828 0 1.3281-1.031 2.3203-2.414 2.3203z" fill="#fff"/><path d="m43.349 44.244c3.4571 0 5.8692-1.9921 6.2012-5.1367h-2.8711c-0.3125 1.6699-1.5723 2.6953-3.3203 2.6953-2.2559 0-3.6719-1.8554-3.6719-4.8632 0-2.9688 1.4356-4.834 3.6621-4.834 1.7188 0 3.0469 1.1328 3.3203 2.8613h2.8711c-0.2246-3.1543-2.8027-5.3027-6.1914-5.3027-4.082 0-6.6699 2.7441-6.6699 7.2851 0 4.5508 2.5684 7.2949 6.6699 7.2949zm11.768-2.1386c-0.9668 0-1.6113-0.4883-1.6113-1.2696 0-0.7421 0.6055-1.2207 1.6699-1.2988l2.207-0.1367v0.7617c0 1.1328-1.0254 1.9434-2.2656 1.9434zm-0.9375 2.0605c1.3086 0 2.6074-0.6543 3.1934-1.7676h0.0586v1.6016h2.7539v-7.1973c0-2.1093-1.7481-3.4961-4.4336-3.4961-2.7735 0-4.502 1.3965-4.6094 3.4278h2.6074c0.1367-0.7715 0.8106-1.2989 1.875-1.2989 1.0742 0 1.7578 0.5665 1.7578 1.543v0.6934l-2.6367 0.1562c-2.6074 0.1563-4.0722 1.2598-4.0722 3.1641 0 1.8848 1.5136 3.1738 3.5058 3.1738zm7.6758-7.5586c0 1.543 1.0156 2.5781 2.998 3.0274l1.9336 0.4297c0.9375 0.2246 1.2891 0.5175 1.2891 1.0449 0 0.6836-0.6543 1.1133-1.7383 1.1133-1.1328 0-1.8262-0.5079-1.9629-1.3868h-2.7832c0.1563 2.0411 1.875 3.3887 4.668 3.3887 2.7637 0 4.6582-1.3574 4.6582-3.418 0-1.5625-0.8496-2.3925-2.9492-2.8613l-2.002-0.4297c-0.9179-0.2148-1.3672-0.5664-1.3672-1.084 0-0.6738 0.6446-1.123 1.6309-1.123 1.0547 0 1.7285 0.5176 1.7871 1.3574h2.627c-0.0391-2.0312-1.7481-3.3594-4.375-3.3594-2.6856 0-4.4141 1.3086-4.4141 3.3008zm10.537 7.3926h2.8516v-10.469h-2.8516v10.469zm1.4258-11.621c0.8594 0 1.5234-0.6543 1.5234-1.4746 0-0.8301-0.664-1.4746-1.5234-1.4746s-1.5235 0.6445-1.5235 1.4746c0 0.8203 0.6641 1.4746 1.5235 1.4746zm3.3301 11.621h2.8515v-6.0059c0-1.3574 0.8106-2.2949 2.0899-2.2949s1.9238 0.7813 1.9238 2.1485v6.1523h2.8516v-6.748c0-2.4512-1.3086-3.9161-3.6329-3.9161-1.6113 0-2.7148 0.7618-3.2714 2.0606h-0.0586v-1.8653h-2.7539v10.469zm16.328 0.2246c3.164 0 5.1855-2.0215 5.1855-5.4687 0-3.3985-2.0507-5.4493-5.1855-5.4493s-5.1856 2.0606-5.1856 5.4493c0 3.4375 2.0215 5.4687 5.1856 5.4687zm0-2.1777c-1.4063 0-2.2949-1.1817-2.2949-3.2813 0-2.0801 0.9082-3.2812 2.2949-3.2812s2.2851 1.2011 2.2851 3.2812c0 2.0996-0.8886 3.2813-2.2851 3.2813zm20.097 1.9531h3.135l-4.902-14.092h-3.467l-4.893 14.092h3.028l1.074-3.418h4.951l1.074 3.418zm-3.584-11.396h0.069l1.806 5.7715h-3.681l1.806-5.7715zm8.487 11.396h2.851v-8.3203h2.012v-2.0996h-2.08v-0.6934c0-0.7422 0.41-1.1523 1.347-1.1523 0.284 0 0.567 0.0195 0.772 0.0586v-1.8848c-0.332-0.0684-0.928-0.127-1.455-0.127-2.481 0-3.447 0.9571-3.447 3.0079v0.791h-1.426v2.0996h1.426v8.3203zm7.128 0h2.852v-8.3203h2.012v-2.0996h-2.08v-0.6934c0-0.7422 0.41-1.1523 1.347-1.1523 0.284 0 0.567 0.0195 0.772 0.0586v-1.8848c-0.332-0.0684-0.928-0.127-1.455-0.127-2.481 0-3.448 0.9571-3.448 3.0079v0.791h-1.425v2.0996h1.425v8.3203zm6.417 0h2.851v-10.469h-2.851v10.469zm1.425-11.621c0.86 0 1.524-0.6543 1.524-1.4746 0-0.8301-0.664-1.4746-1.524-1.4746-0.859 0-1.523 0.6445-1.523 1.4746 0 0.8203 0.664 1.4746 1.523 1.4746zm3.399 11.621h2.851v-14.092h-2.851v14.092zm4.824 0h2.852v-10.469h-2.852v10.469zm1.426-11.621c0.859 0 1.523-0.6543 1.523-1.4746 0-0.8301-0.664-1.4746-1.523-1.4746-0.86 0-1.524 0.6445-1.524 1.4746 0 0.8203 0.664 1.4746 1.524 1.4746zm7.373 9.7266c-0.967 0-1.612-0.4883-1.612-1.2696 0-0.7421 0.606-1.2207 1.67-1.2988l2.207-0.1367v0.7617c0 1.1328-1.025 1.9434-2.265 1.9434zm-0.938 2.0605c1.309 0 2.608-0.6543 3.194-1.7676h0.058v1.6016h2.754v-7.1973c0-2.1093-1.748-3.4961-4.433-3.4961-2.774 0-4.502 1.3965-4.61 3.4278h2.608c0.136-0.7715 0.81-1.2989 1.875-1.2989 1.074 0 1.757 0.5665 1.757 1.543v0.6934l-2.636 0.1562c-2.608 0.1563-4.073 1.2598-4.073 3.1641 0 1.8848 1.514 3.1738 3.506 3.1738zm8.614-13.047v2.4121h-1.475v2.1485h1.475v5.498c0 2.0411 0.957 2.8614 3.418 2.8614 0.576 0 1.064-0.0489 1.357-0.1172v-2.0996c-0.176 0.0293-0.44 0.0488-0.693 0.0488-0.84 0-1.231-0.3809-1.231-1.1816v-5.0098h1.934v-2.1485h-1.934v-2.4121h-2.851zm10.888 4.2969c1.27 0 2.139 0.918 2.197 2.2559h-4.443c0.098-1.3086 0.996-2.2559 2.246-2.2559zm2.237 5.3809c-0.264 0.8008-1.065 1.3183-2.11 1.3183-1.455 0-2.402-1.0254-2.402-2.5195v-0.1758h7.217v-0.8691c0-3.1836-1.924-5.2442-4.971-5.2442-3.096 0-5.049 2.168-5.049 5.5079 0 3.3496 1.934 5.4101 5.156 5.4101 2.588 0 4.463-1.3769 4.776-3.4277h-2.617zm12.949 3.4277c3.164 0 5.185-2.0215 5.185-5.4687 0-3.3985-2.05-5.4493-5.185-5.4493s-5.186 2.0606-5.186 5.4493c0 3.4375 2.022 5.4687 5.186 5.4687zm0-2.1777c-1.406 0-2.295-1.1817-2.295-3.2813 0-2.0801 0.908-3.2812 2.295-3.2812 1.386 0 2.285 1.2011 2.285 3.2812 0 2.0996-0.889 3.2813-2.285 3.2813zm7.422 1.9531h2.851v-8.3203h2.012v-2.0996h-2.08v-0.6934c0-0.7422 0.41-1.1523 1.348-1.1523 0.283 0 0.566 0.0195 0.771 0.0586v-1.8848c-0.332-0.0684-0.928-0.127-1.455-0.127-2.481 0-3.447 0.9571-3.447 3.0079v0.791h-1.426v2.0996h1.426v8.3203zm11.093-12.881v2.4121h-1.474v2.1485h1.474v5.498c0 2.0411 0.957 2.8614 3.418 2.8614 0.577 0 1.065-0.0489 1.358-0.1172v-2.0996c-0.176 0.0293-0.44 0.0488-0.694 0.0488-0.839 0-1.23-0.3809-1.23-1.1816v-5.0098h1.934v-2.1485h-1.934v-2.4121h-2.852zm6.416 12.881h2.852v-5.9766c0-1.3769 0.791-2.3242 2.139-2.3242 1.298 0 1.963 0.8203 1.963 2.168v6.1328h2.851v-6.7383c0-2.4219-1.328-3.9258-3.652-3.9258-1.592 0-2.735 0.7422-3.291 2.0606h-0.059v-5.4883h-2.803v14.092zm16.329-8.584c1.269 0 2.138 0.918 2.197 2.2559h-4.444c0.098-1.3086 0.997-2.2559 2.247-2.2559zm2.236 5.3809c-0.264 0.8008-1.065 1.3183-2.11 1.3183-1.455 0-2.402-1.0254-2.402-2.5195v-0.1758h7.217v-0.8691c0-3.1836-1.924-5.2442-4.971-5.2442-3.095 0-5.049 2.168-5.049 5.5079 0 3.3496 1.934 5.4101 5.157 5.4101 2.588 0 4.463-1.3769 4.775-3.4277h-2.617zm15.342 3.2031v-5.2637l4.912-8.8281h-3.164l-3.164 6.0156h-0.069l-3.154-6.0156h-3.213l4.902 8.8281v5.2637h2.95zm8.652-8.584c1.27 0 2.139 0.918 2.197 2.2559h-4.443c0.098-1.3086 0.996-2.2559 2.246-2.2559zm2.236 5.3809c-0.263 0.8008-1.064 1.3183-2.109 1.3183-1.455 0-2.402-1.0254-2.402-2.5195v-0.1758h7.216v-0.8691c0-3.1836-1.923-5.2442-4.97-5.2442-3.096 0-5.049 2.168-5.049 5.5079 0 3.3496 1.933 5.4101 5.156 5.4101 2.588 0 4.463-1.3769 4.776-3.4277h-2.618zm8.223 1.3086c-0.967 0-1.611-0.4883-1.611-1.2696 0-0.7421 0.605-1.2207 1.67-1.2988l2.207-0.1367v0.7617c0 1.1328-1.026 1.9434-2.266 1.9434zm-0.938 2.0605c1.309 0 2.608-0.6543 3.194-1.7676h0.058v1.6016h2.754v-7.1973c0-2.1093-1.748-3.4961-4.433-3.4961-2.774 0-4.502 1.3965-4.61 3.4278h2.608c0.137-0.7715 0.81-1.2989 1.875-1.2989 1.074 0 1.758 0.5665 1.758 1.543v0.6934l-2.637 0.1562c-2.608 0.1563-4.072 1.2598-4.072 3.1641 0 1.8848 1.513 3.1738 3.505 3.1738zm7.852-0.166h2.852v-5.8496c0-1.4746 0.82-2.334 2.226-2.334 0.41 0 0.801 0.0684 1.035 0.166v-2.5097c-0.195-0.0586-0.478-0.1075-0.81-0.1075-1.231 0-2.119 0.7227-2.49 2.0508h-0.059v-1.8848h-2.754v10.469z" fill="#fff"/><path d="m115.38 66v-7.2666h0.062l5.113 7.2666h1.381v-9.8643h-1.49v7.2735h-0.055l-5.113-7.2735h-1.388v9.8643h1.49zm13.487-10.028c-2.844 0-4.621 1.9619-4.621 5.0996s1.777 5.0928 4.621 5.0928c2.837 0 4.621-1.9551 4.621-5.0928s-1.784-5.0996-4.621-5.0996zm0 1.3467c1.873 0 3.049 1.4492 3.049 3.7529 0 2.2969-1.176 3.7461-3.049 3.7461s-3.056-1.4492-3.056-3.7461c0-2.3037 1.183-3.7529 3.056-3.7529zm16.904 8.6816v-9.8643h-1.777l-3.186 7.7862h-0.054l-3.193-7.7862h-1.77v9.8643h1.394v-7.2598h0.048l2.981 7.1846h1.134l2.974-7.1846h0.048v7.2598h1.401zm4.19 0v-9.8643h-1.531v9.8643h1.531zm4.148 0v-7.2666h0.062l5.113 7.2666h1.381v-9.8643h-1.49v7.2735h-0.055l-5.113-7.2735h-1.388v9.8643h1.49zm15.647 0h1.62l-3.561-9.8643h-1.655l-3.561 9.8643h1.593l0.902-2.666h3.76l0.902 2.666zm-2.803-8.2236h0.041l1.47 4.3271h-2.98l1.469-4.3271zm8.975 8.2236v-8.5449h3.015v-1.3194h-7.568v1.3194h3.022v8.5449h1.531zm11.367-1.3262h-4.73v-3.0625h4.478v-1.2715h-4.478v-2.8847h4.73v-1.3194h-6.261v9.8643h6.261v-1.3262zm2.413-8.5381v9.8643h3.479c2.94 0 4.669-1.832 4.669-4.9492 0-3.1104-1.736-4.9151-4.669-4.9151h-3.479zm1.531 1.3194h1.805c2.085 0 3.247 1.2851 3.247 3.6094 0 2.331-1.156 3.6093-3.247 3.6093h-1.805v-7.2187z" fill="#fff"/><path d="m307.15 46.814c2.39-1.8876 3.641-5.4407 4.21-7.3283 0.114-0.6662-0.114-1.4434-0.682-1.4434-1.366 0-3.755 0.4441-5.917 2.4427-0.91 0.7773-1.593 1.7766-2.162 2.7759 0.342-2.5538 0.455-3.8862 0.569-6.44 1.366-0.111 3.527-0.6662 5.12-2.6648 1.821-2.3317 2.276-6.1069 2.276-8.1055 0-0.7772-0.455-1.3324-0.91-1.2213-1.252 0.3331-3.528 1.3324-5.12 3.6641-0.683 0.9993-1.138 2.1096-1.48 3.1089-0.227-2.5538-0.455-3.8862-1.024-6.3289 1.366-0.4441 3.3-1.4434 4.324-3.7752 1.252-2.6648 0.796-6.551 0.228-8.5496-0.228-0.6662-0.797-1.2213-1.252-0.9993-1.138 0.5552-3.186 2.1097-4.096 4.7745-0.341 1.1103-0.569 2.3317-0.683 3.442-0.796-2.4427-1.365-3.6641-2.503-6.1068 1.138-0.7773 2.845-2.1097 3.3-4.6634 0.569-2.9979-0.91-6.662-1.934-8.5496-0.342-0.6662-1.138-0.99931-1.48-0.77724-1.024 0.88827-2.503 2.7758-2.73 5.6627-0.114 1.2214 0 2.4427 0.227 3.5531-1.593-2.4427-2.503-3.6641-4.437-5.8848-0.683-0.77724-1.707-0.99931-2.276-0.55517-0.569 0.44413-0.341 1.4434 0.228 2.2207 1.934 2.1096 2.731 3.331 4.21 5.6628-0.91-0.6662-2.048-1.1104-3.186-1.3324-2.731-0.55517-4.893 0.77724-6.03 1.5544-0.342 0.2221-0.342 0.8883 0.113 1.2214 1.138 0.8883 3.3 2.5538 5.917 3.331 2.275 0.5552 4.324 0.2221 5.689-0.2221 1.138 2.2207 1.593 3.4421 2.389 5.7738-0.796-0.7772-1.706-1.5545-2.73-1.9986-2.504-1.1103-5.007-0.3331-6.145 0.111-0.455 0.2221-0.568 0.7773-0.227 1.1104 0.91 1.1103 2.617 3.22 4.892 4.4413 2.048 0.9993 4.21 1.1104 5.576 0.9993 0.568 2.4428 0.682 3.6641 0.91 6.1069-0.569-0.8883-1.252-1.7765-2.162-2.4428-2.162-1.5544-4.779-1.4434-6.03-1.2213-0.455 0.111-0.683 0.5551-0.455 1.1103 0.568 1.2214 1.706 3.6641 3.754 5.3296 1.707 1.4435 3.755 1.9986 5.12 2.2207 0 2.4428-0.113 3.6641-0.455 6.1069-0.341-0.9993-0.796-2.1097-1.479-2.8869-1.707-1.9986-4.323-2.4427-5.575-2.5538-0.455 0-0.797 0.4442-0.797 0.8883 0.228 1.3324 0.797 3.8862 2.39 5.9958 1.365 1.7766 3.186 2.8869 4.437 3.331-0.569 2.3317-1.024 3.5531-1.934 5.8848-0.114-1.1103-0.341-2.2207-0.796-3.22-1.252-2.4427-3.528-3.331-4.779-3.7751-0.455-0.111-0.91 0.2221-0.91 0.7772-0.114 1.3324-0.114 3.9973 0.91 6.44 0.91 2.1096 2.389 3.5531 3.527 4.2193-1.138 2.2207-1.82 3.331-3.413 5.3296 0.227-1.1103 0.227-2.2207 0-3.331-0.569-2.6648-2.617-4.1083-3.755-4.7745-0.455-0.222-0.91 0-1.138 0.5552-0.455 1.3324-1.138 3.9972-0.796 6.551 0.341 2.2207 1.479 3.9972 2.389 4.9965-0.796 0.8883-1.138 1.2214-2.048 2.1097-0.683 0.6662-0.91 1.6655-0.455 2.2206 0.455 0.5552 1.593 0.3331 2.275-0.3331 0.911-0.8882 1.252-1.3324 2.162-2.2206 1.138 0.7772 3.072 1.6655 5.803 1.1103 3.072-0.6662 5.916-3.331 7.282-4.9965 0.455-0.5552 0.569-1.3324 0.114-1.5545-1.138-0.5552-3.528-1.2214-6.372-0.3331-1.138 0.3331-2.276 0.8883-3.3 1.5545 1.593-2.2207 2.276-3.331 3.528-5.6628 1.251 0.4442 3.413 0.9994 5.802-0.111 2.731-1.3324 4.893-4.5524 5.803-6.3289 0.341-0.6662 0.227-1.4435-0.228-1.5545-1.251-0.2221-3.754-0.4441-6.257 0.9993-1.024 0.5552-1.935 1.3324-2.845 2.2207 1.024-2.4427 1.365-3.6641 2.048-6.2179 1.252 0.2221 3.413 0.111 5.461-1.4434z" fill="#93BBF4"/></svg>
