<svg xmlns="http://www.w3.org/2000/svg" width="132" height="138" fill="none"><g clip-path="url(#a)"><path fill="#33ADFF" d="M77.284 6.19a13.6 13.6 0 0 0 16.2 5.2 13.6 13.6 0 0 1 18.4 13.4 13.498 13.498 0 0 0 10 13.8 13.5 13.5 0 0 1 7 21.5 13.4 13.4 0 0 0 0 17.1 13.506 13.506 0 0 1 2.321 12.646 13.504 13.504 0 0 1-9.321 8.855 13.5 13.5 0 0 0-10 13.8 13.597 13.597 0 0 1-18.4 13.4 13.396 13.396 0 0 0-16.2 5.2 13.503 13.503 0 0 1-17.814 4.542 13.503 13.503 0 0 1-4.886-4.542 13.395 13.395 0 0 0-16.2-5.2 13.498 13.498 0 0 1-17.037-6.858 13.5 13.5 0 0 1-1.263-6.542 13.702 13.702 0 0 0-10.1-13.8 13.5 13.5 0 0 1-7-21.5 13.4 13.4 0 0 0 0-17.1 13.5 13.5 0 0 1 7-21.5 13.7 13.7 0 0 0 10.1-13.8 13.5 13.5 0 0 1 18.3-13.4 13.6 13.6 0 0 0 16.2-5.2 13.5 13.5 0 0 1 22.7 0Z"/><path fill="#fff" d="M95.662 45.235a3.743 3.743 0 0 0-1.223-.9A3.7 3.7 0 0 0 92.964 44a3.702 3.702 0 0 0-1.522.318c-.48.213-.91.525-1.263.917L61.11 74.6 47.968 61.285a3.654 3.654 0 0 0-1.23-.86 3.616 3.616 0 0 0-1.468-.287 3.615 3.615 0 0 0-1.514.27c-.48.197-.913.496-1.27.877l-6.354 6.437a3.884 3.884 0 0 0-.85 1.294A3.925 3.925 0 0 0 35 70.544c-.008.51.089 1.016.284 1.487.194.47.483.895.847 1.247l22.28 22.487c.343.381.76.687 1.224.9.464.212.965.326 1.474.335a3.873 3.873 0 0 0 1.516-.332c.478-.212.91-.52 1.27-.903l38.119-38.537a4.082 4.082 0 0 0 1.128-2.822 4.081 4.081 0 0 0-1.128-2.822l-6.353-6.35Z"/></g><defs><clipPath id="a"><path fill="#fff" d="M0 0h132v138H0z"/></clipPath></defs></svg>