<svg width="36" height="36" viewBox="0 0 36 36" fill="none" xmlns="http://www.w3.org/2000/svg">
<g clip-path="url(#clip0_4391_1443)">
<path d="M19.5918 32.0569V28.1098C19.5918 27.522 19.7551 27.2701 20.2449 27.1861C25.7959 26.0944 28 22.9031 28.898 19.7958C24.2449 21.1395 19.5918 18.1162 19.5918 11.5658C19.5918 6.86298 22.9388 3 27.5919 3C32.3265 3 36 6.27518 36 13.0775C36 20.7197 31.6735 31.469 20.5714 32.9806C20 33.0646 19.5918 32.8967 19.5918 32.0569ZM0 32.0569V28.1098C0 27.522 0.163266 27.2701 0.653062 27.1861C6.20408 26.0944 8.40816 22.9031 9.30612 19.7958C4.65305 21.1395 0 18.1162 0 11.5658C0 6.86298 3.34693 3 7.99999 3C12.7347 3 16.4082 6.27518 16.4082 13.0775C16.4082 20.7197 12.0816 31.469 0.979581 32.9806C0.408152 33.0646 0 32.8967 0 32.0569Z" fill="#33ADFF"/>
</g>
<defs>
<clipPath id="clip0_4391_1443">
<rect width="36" height="36" fill="white"/>
</clipPath>
</defs>
</svg>
