<svg width="100%" height="100%" viewBox="0 0 24 24" fill="none" xmlns="http://www.w3.org/2000/svg">
	<path d="M21.3652 3.43485C21.2443 3.3007 21.0977 3.19292 20.9343 3.11819C20.7709 3.04341 20.5942 3.00319 20.4149 3.00002C20.2305 2.99893 20.048 3.03708 19.879 3.11195C19.71 3.18687 19.5585 3.29686 19.4341 3.43485L9.19606 13.7776L4.56747 9.08763C4.44505 8.95764 4.29747 8.85469 4.13395 8.7852C3.97046 8.71575 3.79453 8.68123 3.61724 8.68384C3.43483 8.67686 3.25302 8.70923 3.08393 8.77882C2.91481 8.84845 2.76223 8.95369 2.63636 9.08763L0.398685 11.355C0.269533 11.4848 0.167642 11.6398 0.099174 11.8106C0.030671 11.9814 -0.00296491 12.1645 0.000204899 12.3488C-0.00240139 12.5285 0.0316566 12.7067 0.10023 12.8724C0.168803 13.0381 0.270414 13.1876 0.398685 13.3117L8.24582 21.2318C8.3667 21.3659 8.51328 21.4737 8.67667 21.5485C8.84009 21.6232 9.01679 21.6634 9.19606 21.6666C9.37987 21.664 9.56136 21.6243 9.72982 21.5496C9.89828 21.4749 10.0503 21.3669 10.1769 21.2318L23.6027 7.6589C23.8577 7.39239 24 7.03596 24 6.66499C24 6.29401 23.8577 5.93759 23.6027 5.67111L21.3652 3.43485Z" fill="#fff"></path>
</svg>
