<?xml version="1.0" encoding="UTF-8"?>
<svg xmlns="http://www.w3.org/2000/svg" viewBox="0 0 102.7 102.7">
  <title>free_spins</title>
  <g id="Layer_2" data-name="Layer 2">
    <g id="Layer_5" data-name="Layer 5">
      <circle cx="51.3" cy="51.3" r="51.3" style="fill:#f2d2f9"></circle>
      <path d="M58.5,22.3l5.7,5.8a.8.8,0,0,1,.4.4h.1l.3.3v.5h.1v.2h.1V32h-.1l-.2.3h0a.5.5,0,0,1-.2.4l-.5.6-5.8,5.8a3.9,3.9,0,0,1-2.7,1.1,3.6,3.6,0,0,1-2.6-1.1,3.9,3.9,0,0,1-.3-4.8h-2A17.6,17.6,0,0,0,33.2,52.1a17.1,17.1,0,0,0,2.1,8.3c0,.1,0,.1.1.2a3.7,3.7,0,0,1-1.6,4.7,3.3,3.3,0,0,1-1.9.6,4,4,0,0,1-3.2-2,25.4,25.4,0,0,1-2.9-11.8,25,25,0,0,1,25-25h2.1a3.9,3.9,0,0,1,.3-4.8h.1A3.7,3.7,0,0,1,58.5,22.3ZM73.8,38.6A24.9,24.9,0,0,1,51.9,75.5H49.8a3.7,3.7,0,0,1-2.9,5.9,4,4,0,0,1-2.7-1.1l-5.8-5.9-.3-.3a.9.9,0,0,1-.3-.5l-.3-.4v-.4h0a.8.8,0,0,1-.1-.4V71.3a.9.9,0,0,1,.1-.5,1.4,1.4,0,0,1,.2-.6h0l.3-.5a1.2,1.2,0,0,1,.5-.5l5.7-5.9h.1a3.7,3.7,0,0,1,5.6,4.8h2A16.8,16.8,0,0,0,60.4,66a17.6,17.6,0,0,0,6.9-23.9,3.8,3.8,0,0,1,1.4-5h.1A3.6,3.6,0,0,1,73.8,38.6Z" style="fill:#a141b5"></path>
    </g>
  </g>
</svg>
