<svg xmlns="http://www.w3.org/2000/svg" width="48" height="48" fill="none"><g clip-path="url(#a)"><path fill="#fff" d="M24 33a9 9 0 1 0 0-18 9 9 0 0 0 0 18z"/><path fill="#0E60C5" d="M24 12c6.628 0 12 5.372 12 12s-5.372 12-12 12-12-5.372-12-12 5.372-12 12-12zm-2 13.386-2.8-2.8-2.348 2.347L22 30.081l9.414-9.414-2.347-2.348L22 25.386z"/><rect width="2" height="6" x="23" y="42" fill="#0E60C5" fill-opacity=".5" rx="1"/><rect width="2" height="6" x="23" fill="#0E60C5" fill-opacity=".5" rx="1"/><rect width="2" height="6" x="6" y="23" fill="#0E60C5" fill-opacity=".5" rx="1" transform="rotate(90 6 23)"/><rect width="2" height="6" x="48" y="23" fill="#0E60C5" fill-opacity=".5" rx="1" transform="rotate(90 48 23)"/><rect width="2" height="6" x="10.565" y="36.021" fill="#0E60C5" fill-opacity=".5" rx="1" transform="rotate(45 10.565 36.02)"/><rect width="2" height="6" x="40.264" y="6.322" fill="#0E60C5" fill-opacity=".5" rx="1" transform="rotate(45 40.264 6.322)"/><rect width="2" height="6" x="11.979" y="10.565" fill="#0E60C5" fill-opacity=".5" rx="1" transform="rotate(135 11.979 10.565)"/><rect width="2" height="6" x="41.678" y="40.263" fill="#0E60C5" fill-opacity=".5" rx="1" transform="rotate(135 41.678 40.263)"/></g><defs><clipPath id="a"><path fill="#fff" d="M0 0h48v48H0z"/></clipPath></defs></svg>