<svg width="302" height="65" viewBox="0 0 302 65" fill="none" xmlns="http://www.w3.org/2000/svg">
<g clip-path="url(#clip0_2586_1581)">
<path d="M79.9807 44.3954H73.1184C71.7874 44.3954 70.7817 43.3319 70.7817 42.0026V23.6283C70.7817 22.2989 71.7874 21.2355 73.1184 21.2355H78.7975C82.1103 21.2355 85.571 23.0965 85.571 27.1141C85.571 29.4478 84.595 31.2202 82.7907 32.0769V32.136C85.9851 32.9041 87.4049 35.0605 87.4049 38.0737C87.4049 42.4162 83.678 44.3954 79.9807 44.3954ZM77.9693 25.1939H75.4847V30.659H77.9398C79.1525 30.659 80.868 30.1568 80.868 27.764C80.868 26.0802 79.5666 25.1939 77.9693 25.1939ZM78.7975 34.5879H75.5143V40.4369H78.975C80.8976 40.4369 82.6428 39.8461 82.6428 37.5124C82.6132 35.7991 81.4892 34.5879 78.7975 34.5879Z" fill="white"/>
<path d="M101.573 44.7203C94.9179 44.7203 89.6529 40.0233 89.6529 32.8744C89.6529 25.7256 94.9179 20.94 101.573 20.94C108.228 20.94 113.464 25.7256 113.464 32.8744C113.464 40.0233 108.228 44.7203 101.573 44.7203ZM101.573 25.5483C97.58 25.5483 94.6517 28.7387 94.6517 32.8744C94.6517 37.0397 97.58 40.171 101.573 40.171C105.566 40.171 108.465 37.0101 108.465 32.8744C108.465 28.7387 105.566 25.5483 101.573 25.5483Z" fill="white"/>
<path d="M136.358 42.0911C136.358 43.5977 135.145 44.7498 133.636 44.7498C132.69 44.7498 131.862 44.2771 131.359 43.5386L121.006 29.4477V42.5638C121.006 43.775 120.001 44.7793 118.758 44.7793C117.516 44.7793 116.54 43.8045 116.54 42.5638V23.5986C116.54 22.1511 117.723 20.94 119.232 20.94C120.178 20.94 121.006 21.4422 121.509 22.2102L131.862 36.2716V23.1851C131.862 21.9739 132.867 20.94 134.11 20.94C135.352 20.94 136.358 21.9739 136.358 23.1851V42.0911V42.0911Z" fill="white"/>
<path d="M154.312 38.6053C155.022 37.6896 155.436 36.3898 155.436 34.6764V23.3328C155.436 22.0034 156.442 20.94 157.773 20.94C159.044 20.94 160.109 22.0034 160.109 23.3328V35.2672C160.109 37.8373 159.399 40.0528 158.098 41.648C156.442 43.6273 153.809 44.7498 150.467 44.7498C147.095 44.7498 144.492 43.6273 142.835 41.648C141.534 40.0528 140.824 37.8373 140.824 35.2672V23.3328C140.824 22.0034 141.889 20.94 143.161 20.94C144.492 20.94 145.497 22.0034 145.497 23.3328V34.6764C145.497 36.4193 145.882 37.6896 146.621 38.6053C147.538 39.787 148.84 40.2301 150.437 40.2301C152.093 40.2596 153.395 39.8165 154.312 38.6053Z" fill="white"/>
<path d="M177.147 26.6709C175.52 26.6709 174.307 25.1643 171.793 25.1643C169.604 25.1643 168.569 25.9324 168.569 27.2912C168.569 28.5615 169.752 29.2409 171.408 29.8022C173.36 30.4521 175.786 30.8952 177.62 32.2541C179.069 33.3175 180.164 34.9127 180.164 37.4532C180.164 42.0321 176.437 44.7203 171.615 44.7203C169.87 44.7203 167.563 44.3658 165.7 43.5682C164.457 43.0364 163.511 42.2093 163.511 40.939C163.511 39.6097 164.516 38.6053 165.759 38.6053C167.208 38.6053 168.598 40.4959 171.527 40.4959C174.337 40.4959 175.017 39.0484 175.017 37.8373C175.017 36.4489 173.834 35.7103 172.237 35.1195C170.462 34.4401 168.243 34.0265 166.35 32.7858C164.753 31.7223 163.57 30.0681 163.57 27.3799C163.57 23.6282 166.498 20.9104 172.029 20.9104C173.508 20.9104 175.668 21.1172 177.265 21.8262C178.448 22.3284 179.365 23.126 179.365 24.3372C179.365 25.6369 178.418 26.6709 177.147 26.6709Z" fill="white"/>
<path d="M198.828 21.265C199.952 21.265 200.839 22.2399 200.839 23.451C200.839 24.6327 199.922 25.637 198.828 25.637H189.274V30.6294H197.378C198.502 30.6294 199.39 31.6043 199.39 32.8154C199.39 33.9971 198.473 34.9424 197.378 34.9424H189.274V42.3571C189.274 43.6864 188.15 44.7499 186.937 44.7499C185.636 44.7499 184.6 43.6864 184.6 42.3571V23.6283C184.6 22.2989 185.636 21.2355 186.937 21.2355H198.828V21.265Z" fill="#FFD500"/>
<path d="M204.477 23.3328C204.477 22.0034 205.512 20.94 206.814 20.94C208.115 20.94 209.151 22.0034 209.151 23.3328V42.357C209.151 43.6863 208.027 44.7498 206.814 44.7498C205.512 44.7498 204.477 43.6863 204.477 42.357V23.3328Z" fill="#FFD500"/>
<path d="M233.967 42.0911C233.967 43.5977 232.754 44.7498 231.246 44.7498C230.299 44.7498 229.471 44.2771 228.968 43.5386L218.616 29.4477V42.5638C218.616 43.775 217.61 44.7793 216.368 44.7793C215.126 44.7793 214.149 43.8045 214.149 42.5638V23.5986C214.149 22.1511 215.333 20.94 216.841 20.94C217.788 20.94 218.616 21.4422 219.119 22.2102L229.471 36.2716V23.1851C229.471 21.9739 230.477 20.94 231.719 20.94C232.961 20.94 233.967 21.9739 233.967 23.1851V42.0911Z" fill="#FFD500"/>
<path d="M255.914 41.3232C253.312 43.8341 249.94 44.3954 246.804 44.3954H240.77C239.439 44.3954 238.433 43.3319 238.433 42.0026V23.6283C238.433 22.2989 239.439 21.2355 240.77 21.2355H247.278C250.679 21.2355 253.844 21.9149 256.417 24.7804C258.044 26.5823 259.139 29.1524 259.139 32.7859C259.109 36.7444 257.808 39.4916 255.914 41.3232ZM243.107 40.2892H246.449C248.963 40.2892 251.034 39.6394 252.454 38.1623C253.607 36.9807 254.288 35.2082 254.288 32.8154C254.288 30.4226 253.666 28.7388 252.602 27.5572C251.241 26.0211 249.141 25.3712 246.597 25.3712H243.136V40.2892H243.107Z" fill="#FFD500"/>
<path d="M267.332 40.0529H277.891C279.045 40.0529 279.903 41.0868 279.903 42.2389C279.903 43.4206 279.015 44.4249 277.891 44.4249H264.995C263.664 44.4249 262.658 43.3615 262.658 42.0321V23.6283C262.658 22.2989 263.664 21.2355 264.995 21.2355H277.891C279.045 21.2355 279.903 22.2103 279.903 23.4215C279.903 24.6031 279.015 25.6075 277.891 25.6075H267.332V30.5999H276.176C277.3 30.5999 278.158 31.5747 278.158 32.7859C278.158 33.9675 277.27 34.9128 276.176 34.9128H267.332V40.0529Z" fill="#FFD500"/>
<path d="M288.333 42.3571C288.333 43.6864 287.209 44.7499 285.996 44.7499C284.665 44.7499 283.659 43.6864 283.659 42.3571V23.6283C283.659 22.2989 284.665 21.2355 285.996 21.2355H293.657C295.816 21.2355 297.768 21.649 299.277 22.8011C300.904 24.0714 301.85 26.2279 301.85 28.7388C301.85 30.9544 301.022 32.9041 299.366 34.4106C298.833 34.8537 298.33 35.1787 297.798 35.4741L301.466 40.9391C301.761 41.3823 301.85 41.8254 301.85 42.2389C301.85 43.6273 300.815 44.7204 299.513 44.7204C298.596 44.7204 297.975 44.2772 297.532 43.5683L292.917 36.3308H288.333V42.3571ZM288.333 25.4007V32.2246H293.243C294.189 32.2246 295.077 32.0769 295.757 31.6338C296.585 31.1021 297.088 30.1863 297.088 28.8274C297.088 27.4686 296.585 26.5823 295.846 26.0506C295.136 25.578 294.248 25.4007 293.302 25.4007H288.333V25.4007Z" fill="#FFD500"/>
<path fill-rule="evenodd" clip-rule="evenodd" d="M57.3826 20.5264V45.4588C57.3826 47.9993 56.022 50.3035 53.8331 51.5737L32.2111 64.0399C30.0223 65.3102 27.3307 65.3102 25.1418 64.0399L3.51986 51.5737C1.36062 50.3035 0 47.9698 0 45.4588V20.5264C0 18.0155 1.36062 15.6817 3.51986 14.4115L25.1418 1.9453C27.3307 0.675052 30.0223 0.675052 32.2111 1.9453L53.8627 14.4115C56.022 15.6817 57.3826 18.0155 57.3826 20.5264ZM15.3513 43.4796C15.3513 46.4041 17.7472 48.7969 20.6755 48.7969H34.9028C40.2565 48.7969 44.6933 44.4839 44.7821 39.1961C44.8412 36.5375 43.8356 34.0265 41.9721 32.1359C41.558 31.7223 41.0847 31.3383 40.6115 30.9838C41.7651 29.4477 42.3566 27.5866 42.2975 25.6369C42.1792 20.9695 38.2748 17.1883 33.5718 17.1883H20.6755C17.7472 17.1883 15.3513 19.5811 15.3513 22.5056V43.4796Z" fill="#FFD500"/>
<path d="M34.962 34.4992H33.6901C33.6605 34.4992 33.6605 34.4992 33.6309 34.4992H30.3181C28.8392 34.4992 27.656 33.3176 27.656 31.8405C27.656 30.3635 28.8392 29.1819 30.3181 29.1819H33.5718C33.6013 29.1819 33.6013 29.1819 33.6309 29.1819C35.4944 29.1819 37.0029 27.6457 36.9733 25.7551C36.9437 23.9236 35.4056 22.5056 33.5718 22.5056H22.1248C21.3262 22.5056 20.6755 23.1555 20.6755 23.9531V42.0025C20.6755 42.8001 21.3262 43.45 22.1248 43.45H34.9028C37.3578 43.45 39.4283 41.5003 39.4579 39.0485C39.5171 36.567 37.4762 34.4992 34.962 34.4992Z" fill="white"/>
</g>
<defs>
<clipPath id="clip0_2586_1581">
<rect width="302" height="65" fill="white"/>
</clipPath>
</defs>
</svg>
