<?xml version="1.0" encoding="UTF-8"?>
<svg xmlns="http://www.w3.org/2000/svg" viewBox="0 0 102.7 102.7">
  <title>recommended_bonus</title>
  <g id="Layer_2" data-name="Layer 2">
    <g id="Layer_5" data-name="Layer 5">
      <circle cx="51.3" cy="51.3" r="51.3" style="fill:#ffe9b8"></circle>
      <path d="M53.7,25.6l6.4,13.1a2.5,2.5,0,0,0,2,1.4l14.2,2.1a2.8,2.8,0,0,1,1.5,4.7L67.5,57a3.2,3.2,0,0,0-.8,2.4l2.5,14.4a2.8,2.8,0,0,1-3.9,2.9L52.6,69.9a2.8,2.8,0,0,0-2.5,0L37.4,76.7a2.7,2.7,0,0,1-3.9-2.9l2.4-14.4a2.8,2.8,0,0,0-.7-2.4L24.9,46.9a2.8,2.8,0,0,1,1.4-4.7l14.3-2.1a2.6,2.6,0,0,0,2-1.4l6.3-13.1a2.7,2.7,0,0,1,4.8,0" style="fill:#ffad25;fill-rule:evenodd"></path>
    </g>
  </g>
</svg>
